<?xml version="1.0" standalone="no"?>
<!DOCTYPE svg PUBLIC "-//W3C//DTD SVG 20010904//EN"
 "http://www.w3.org/TR/2001/REC-SVG-20010904/DTD/svg10.dtd">
<svg version="1.0" xmlns="http://www.w3.org/2000/svg"
 width="590.000000pt" height="836.000000pt" viewBox="0 0 590.000000 836.000000"
 preserveAspectRatio="xMidYMid meet">
<metadata>
Created by potrace 1.16, written by Peter Selinger 2001-2019
</metadata>
<g transform="translate(0.000000,836.000000) scale(0.100000,-0.100000)"
fill="#000000" stroke="none">
<path d="M2725 7855 c-194 -35 -359 -174 -465 -390 -77 -156 -93 -226 -98
-450 -3 -104 -4 -255 -3 -334 2 -141 2 -145 37 -219 37 -82 53 -182 54 -337 0
-67 -3 -82 -19 -92 -20 -12 -71 -140 -71 -178 0 -25 -48 -76 -147 -154 l-52
-42 -26 35 -27 35 20 28 c28 40 82 150 82 167 0 28 -32 24 -119 -15 l-88 -41
-50 49 c-48 46 -420 596 -642 948 -52 83 -142 222 -199 310 -58 88 -109 176
-115 195 -14 53 -45 108 -66 120 -30 15 -60 12 -123 -14 -68 -28 -130 -75
-169 -129 -44 -61 -39 -85 36 -169 120 -133 972 -1397 961 -1425 -3 -8 6 -37
20 -66 l26 -51 -23 -16 c-56 -35 -120 -104 -117 -124 6 -40 70 -45 175 -11 17
6 25 1 38 -24 15 -31 15 -31 -9 -41 -14 -5 -42 -20 -63 -33 -35 -22 -45 -23
-131 -18 -292 18 -534 -85 -762 -325 -92 -97 -188 -231 -239 -333 -47 -93 -56
-163 -35 -285 16 -100 16 -140 -2 -409 -14 -201 46 -407 174 -601 54 -82 87
-175 108 -306 30 -189 36 -216 65 -277 35 -74 109 -144 177 -168 26 -10 57
-22 69 -27 27 -13 123 -5 181 15 23 8 70 33 105 55 71 46 163 77 257 87 l65 6
39 -77 c43 -84 131 -210 242 -348 121 -150 154 -222 154 -332 l0 -34 -94 0
c-126 0 -141 -11 -150 -112 -4 -40 -16 -144 -26 -231 -18 -142 -23 -162 -46
-190 -77 -91 -114 -126 -154 -144 -56 -25 -94 -66 -110 -118 -18 -56 -103
-151 -141 -159 -17 -3 -44 -20 -61 -38 -28 -30 -30 -37 -26 -93 6 -77 58 -168
120 -211 37 -25 52 -29 111 -29 37 0 67 -1 67 -2 0 -2 -9 -12 -20 -23 -11 -11
-20 -32 -20 -46 0 -15 -29 -77 -64 -139 -95 -165 -98 -217 -20 -304 56 -63
133 -95 211 -89 82 7 109 35 202 209 45 83 81 155 81 160 0 5 5 9 10 9 25 0 2
-232 -36 -356 -13 -44 -24 -85 -24 -92 0 -9 318 -12 1396 -12 l1397 0 -7 40
c-3 22 -27 104 -51 181 -25 76 -45 148 -45 159 0 10 32 71 71 134 64 104 71
121 72 171 2 45 5 54 17 49 61 -25 185 -7 260 39 53 33 120 97 120 117 0 9 9
25 20 35 48 43 49 136 3 222 -39 74 -145 619 -151 776 l-4 117 -42 34 c-48 40
-81 54 -151 66 -60 10 -177 -4 -257 -31 l-57 -19 -77 55 c-43 31 -84 60 -92
64 -21 12 -3 83 61 244 49 124 51 128 76 123 68 -15 330 -57 446 -72 101 -13
139 -14 170 -5 55 15 56 16 108 97 82 129 81 126 82 264 1 115 4 132 33 211
40 105 144 296 223 406 75 105 93 142 123 245 46 160 56 390 25 588 -7 46 -7
66 1 68 6 2 19 21 30 43 45 87 19 271 -65 461 -90 205 -187 332 -278 366 -29
11 -98 43 -155 70 -56 28 -126 55 -155 61 -28 6 -92 18 -142 27 -191 34 -404
120 -440 177 -15 24 -32 35 -67 44 -26 6 -61 21 -78 33 -16 12 -74 42 -128 67
-89 42 -157 79 -254 140 -44 27 -75 29 -100 6 -26 -23 -37 -9 -74 95 -24 68
-38 91 -62 107 -17 11 -33 29 -36 40 -3 11 -6 96 -6 188 0 123 4 175 14 195
40 78 61 279 34 323 -10 16 -15 57 -16 129 -4 247 -72 474 -187 630 -70 94
-225 220 -273 220 -7 0 -20 7 -29 15 -8 8 -19 12 -24 9 -6 -3 25 -26 68 -51
106 -62 160 -113 118 -113 -8 0 -15 5 -15 10 0 6 -5 10 -12 10 -7 0 -5 -7 5
-18 22 -24 8 -84 -27 -119 -14 -14 -23 -30 -19 -37 4 -6 0 -5 -9 2 -11 9 -18
10 -23 2 -3 -5 -1 -10 5 -10 8 0 8 -6 0 -20 -6 -11 -53 -40 -105 -66 -98 -48
-102 -48 -200 -24 -22 5 -69 10 -103 10 -65 0 -109 19 -139 61 -7 9 -24 20
-38 23 -25 6 -56 52 -48 72 4 12 -24 27 -36 20 -4 -3 -8 4 -8 15 -1 12 3 17 9
13 7 -4 8 -2 4 4 -4 7 -2 12 3 12 6 0 11 5 11 10 0 6 -20 -3 -44 -19 -45 -31
-92 -89 -141 -174 -46 -80 -40 -44 10 60 40 82 60 111 125 174 125 122 252
177 415 180 37 0 45 3 30 9 -27 12 -67 11 -150 -5z m588 -1170 c-1 -5 -11 -11
-22 -13 -10 -2 -25 -16 -31 -32 -7 -17 -28 -40 -48 -52 -31 -19 -39 -20 -80
-9 -33 9 -48 9 -58 0 -8 -6 -14 -8 -14 -3 0 15 82 105 104 114 28 12 152 8
149 -5z m467 -845 c18 -18 20 -33 20 -127 -1 -122 -22 -205 -53 -211 -17 -4
-18 5 -11 161 5 119 4 166 -5 171 -18 11 -13 26 9 26 11 0 29 -9 40 -20z
m-1578 -77 c19 -17 25 -53 8 -53 -5 0 -7 -12 -4 -28 5 -24 -6 -39 -95 -131
-84 -87 -103 -102 -115 -92 -18 15 -50 11 -52 -7 -6 -54 -7 -55 -15 -17 -4 22
-8 65 -8 95 l-1 55 91 70 c108 83 162 123 168 124 3 1 13 -6 23 -16z m1699
-12 c88 -30 314 -143 332 -166 7 -9 2 -64 -7 -72 -2 -2 -23 5 -47 15 -77 34
-131 54 -244 86 l-110 32 -3 62 c-3 71 -3 72 79 43z m-2081 -195 c0 -8 -4 -17
-9 -21 -6 -3 -8 -53 -4 -123 6 -128 5 -133 -59 -160 -25 -10 -28 -9 -33 11
-12 47 -20 154 -15 195 4 37 12 48 50 77 49 37 70 43 70 21z m2646 -97 c65
-34 121 -63 123 -65 3 -3 -5 -14 -17 -27 -22 -22 -22 -22 -75 -3 -84 29 -178
76 -184 92 -6 17 12 64 25 64 4 0 62 -27 128 -61z m262 -104 c41 -9 132 -46
132 -56 0 -4 -15 -9 -32 -11 -36 -3 -41 -21 -8 -26 12 -2 34 -23 51 -50 35
-55 36 -62 7 -62 -35 0 -103 38 -155 85 -45 42 -47 45 -29 58 17 13 17 15 -13
40 -38 31 -39 39 -6 32 14 -3 37 -7 53 -10z m-3602 -41 c-5 -13 1 -14 37 -9
28 4 63 1 101 -10 32 -9 71 -14 87 -11 43 8 44 -11 2 -33 -21 -10 -47 -29 -57
-40 -24 -27 -272 -147 -321 -157 -19 -3 -38 -10 -41 -15 -10 -17 -34 -9 -51
17 -17 26 -16 27 11 50 36 31 15 31 -31 -1 -20 -13 -40 -22 -44 -19 -4 2 -20
-7 -35 -21 -15 -14 -31 -25 -35 -25 -4 0 -28 -14 -53 -30 -41 -28 -57 -45
-121 -132 -11 -15 -45 -60 -76 -100 -31 -40 -63 -86 -72 -103 -27 -49 -19 -13
9 46 15 30 36 77 49 104 32 73 137 216 206 280 110 101 241 177 362 210 69 18
80 18 73 -1z m3342 -144 c50 -77 92 -144 92 -149 0 -6 -9 -15 -20 -21 -17 -9
-26 -6 -53 16 -67 56 -237 223 -237 232 0 12 89 61 110 61 8 0 57 -63 108
-139z m-2346 -35 c59 -8 129 -23 154 -34 58 -26 67 -26 140 0 71 25 130 21
228 -16 44 -17 87 -25 127 -25 61 0 139 -30 139 -53 0 -5 -6 -4 -14 2 -16 14
-49 4 -39 -13 4 -7 2 -7 -7 1 -11 10 -11 15 0 28 11 13 5 15 -49 15 -43 0 -60
-3 -55 -11 4 -7 0 -9 -12 -6 -11 4 -40 11 -66 18 -26 6 -46 15 -43 19 3 5 -3
6 -14 3 -10 -3 -33 3 -51 12 -35 18 -85 15 -181 -10 -43 -12 -58 -11 -102 2
-29 8 -56 19 -62 23 -5 4 -28 11 -50 14 -64 10 -169 26 -177 26 -5 0 -8 5 -8
10 0 13 13 12 142 -5z m1635 -126 c35 -17 63 -35 63 -40 0 -9 -31 -89 -34 -89
-1 0 -26 11 -54 25 -29 14 -56 25 -61 25 -6 0 -12 4 -15 9 -7 10 23 101 32
101 4 0 35 -14 69 -31z m-175 -344 c46 -9 105 -20 131 -25 27 -6 64 -10 83
-10 41 0 96 -21 138 -54 17 -12 68 -38 113 -56 65 -27 80 -36 71 -47 -15 -19
-22 -17 -138 32 -75 33 -157 57 -290 86 -149 33 -190 45 -210 65 -24 24 -24
24 -2 24 12 0 59 -7 104 -15z m968 -122 c16 -9 30 -20 30 -23 -1 -19 -24 -34
-57 -36 -68 -2 -254 -34 -273 -46 -11 -7 -20 -21 -22 -33 -2 -14 -10 -20 -28
-20 -21 0 -25 4 -23 29 2 34 22 57 83 99 90 63 214 75 290 30z m-1670 -120
c-2 -28 -317 -196 -710 -378 -75 -35 -205 -97 -290 -139 -149 -73 -190 -89
-133 -50 31 21 37 24 125 76 35 21 81 51 103 67 69 52 206 124 325 172 168 68
190 78 190 88 0 5 -39 -6 -87 -25 -49 -19 -154 -57 -235 -85 l-148 -50 -222 8
c-286 10 -667 6 -739 -8 -83 -16 -105 -8 -47 18 25 12 72 29 105 38 64 19 84
19 597 -11 l259 -15 101 26 c186 48 506 155 676 225 124 52 130 54 130 43z
m1870 -260 c0 -3 -14 -28 -31 -55 -41 -64 -133 -113 -232 -123 -37 -4 -67 -5
-67 -1 0 10 63 33 111 40 42 6 46 9 59 49 12 34 24 47 65 69 47 26 95 36 95
21z m-393 -193 c56 -5 130 -16 165 -25 71 -18 200 -78 219 -101 11 -14 8 -15
-32 -10 -24 3 -71 8 -104 12 -33 3 -127 19 -210 34 -82 16 -188 31 -235 35
-47 4 -125 12 -175 19 -87 12 -89 13 -45 20 25 3 78 8 119 11 40 2 76 6 79 9
8 9 102 7 219 -4z m-1118 -1110 c173 -202 494 -486 719 -635 40 -26 71 -50 69
-52 -14 -13 -295 184 -443 311 -125 107 -417 403 -410 415 12 18 20 13 65 -39z
m-155 -868 c3 -22 17 -55 31 -76 32 -47 31 -51 -5 -73 -22 -13 -30 -25 -31
-48 -3 -87 -19 -143 -19 -67 0 23 -8 70 -17 103 -14 52 -15 69 -4 122 7 34 15
65 17 69 11 18 22 6 28 -30z m-1169 -10 c17 -6 7 -20 -77 -105 l-98 -98 0 83
c0 46 4 89 9 97 15 23 121 37 166 23z m2579 -177 c14 -10 26 -25 25 -34 0 -9
-32 -43 -71 -76 -39 -33 -85 -73 -103 -90 -18 -16 -55 -48 -81 -71 -48 -40
-49 -40 -50 -17 -2 30 -28 59 -74 85 l-35 19 30 -6 c17 -3 37 -8 46 -11 16 -4
145 119 196 189 24 32 32 37 60 33 17 -2 43 -12 57 -21z m344 -110 c6 -33 9
-74 7 -92 -3 -17 2 -48 10 -67 18 -43 18 -47 3 -43 -13 2 -15 -4 -17 -53 -1
-19 -6 -30 -16 -30 -8 0 -15 2 -15 5 0 20 -34 168 -47 205 l-15 46 32 53 c18
29 36 49 40 44 4 -4 12 -35 18 -68z m-2840 -44 c15 -10 77 -46 137 -80 61 -34
121 -71 135 -82 l25 -21 -33 6 c-82 14 -188 -40 -176 -91 4 -12 3 -23 -1 -23
-11 0 -255 225 -255 236 0 20 28 48 61 60 49 18 76 17 107 -5z m1959 -201 c5
-30 -392 -202 -432 -187 -28 11 -15 22 48 40 34 10 127 52 207 92 145 74 173
83 177 55z m246 -147 c3 -16 11 -48 17 -73 23 -100 49 -250 55 -330 4 -47 11
-119 15 -160 5 -41 7 -77 4 -79 -6 -6 -12 18 -29 129 -9 58 -32 199 -51 313
-19 115 -35 211 -35 215 -5 35 17 21 24 -15z m-1864 -266 c0 -107 -4 -199 -8
-206 -13 -20 -109 -3 -122 21 -6 11 -8 26 -5 34 3 8 2 14 -3 14 -10 0 -51 155
-51 190 0 20 11 31 63 57 34 18 71 44 82 58 42 51 45 38 44 -168z m1054 -50
c51 -40 33 -118 -30 -130 -32 -6 -83 39 -83 73 0 24 51 80 72 80 7 0 26 -10
41 -23z m-400 -15 c17 -15 23 -68 9 -88 -10 -15 -47 -34 -68 -34 -29 0 -64 40
-64 74 0 40 8 51 45 63 33 11 51 8 78 -15z m1012 -206 c18 -13 18 -16 -5 -97
-12 -46 -24 -112 -26 -147 -4 -57 -22 -108 -54 -152 -13 -17 -13 -20 21 239
11 85 22 158 25 163 7 11 17 10 39 -6z"/>
</g>
</svg>
