<?xml version="1.0" standalone="no"?>
<!DOCTYPE svg PUBLIC "-//W3C//DTD SVG 20010904//EN"
 "http://www.w3.org/TR/2001/REC-SVG-20010904/DTD/svg10.dtd">
<svg version="1.0" xmlns="http://www.w3.org/2000/svg"
 width="64.000000pt" height="64.000000pt" viewBox="0 0 64.000000 64.000000"
 preserveAspectRatio="xMidYMid meet">
<metadata>
Created by potrace 1.16, written by Peter Selinger 2001-2019
</metadata>
<g transform="translate(0.000000,64.000000) scale(0.100000,-0.100000)"
fill="#6A7985" stroke="none">
<path d="M235 625 c-16 -9 -39 -25 -50 -35 -11 -10 -39 -23 -61 -29 -83 -22
-124 -76 -124 -164 0 -102 62 -157 186 -165 64 -4 74 -7 74 -23 0 -15 -8 -19
-40 -19 -59 0 -52 -25 25 -99 53 -51 68 -60 82 -52 34 18 135 129 129 140 -4
6 -23 11 -42 11 -27 0 -34 4 -34 19 0 16 10 19 83 23 91 5 134 23 161 68 23
41 21 121 -5 154 -23 30 -69 56 -97 56 -11 0 -25 13 -35 34 -8 19 -32 47 -53
62 -30 23 -49 29 -103 32 -47 2 -75 -2 -96 -13z m151 -65 c21 -14 39 -36 50
-65 16 -43 19 -45 56 -45 74 0 114 -76 66 -127 -19 -20 -31 -23 -100 -23 l-78
0 0 28 c0 37 -17 52 -60 52 -43 0 -60 -15 -60 -52 0 -28 -1 -28 -60 -28 -70 0
-111 17 -128 55 -33 72 15 145 97 145 20 0 34 7 41 21 16 30 70 59 109 59 18
0 48 -9 67 -20z"/>
</g>
</svg>
