<svg width="1352" height="396" viewBox="0 0 1352 396" fill="none" xmlns="http://www.w3.org/2000/svg">
<path d="M499.5 12C499.5 7.02944 495.467 2.97579 490.503 3.23219C456.774 4.97435 424.057 16.4864 395.886 36.6218C365.216 58.5432 341.312 89.7008 327.196 126.155C313.081 162.609 309.387 202.721 316.584 241.421C323.175 276.868 338.631 309.671 361.227 336.375C364.591 340.351 370.642 340.34 374.199 336.535L497.075 205.095C498.633 203.427 499.5 201.23 499.5 198.948L499.5 12Z" fill="#831D1D" stroke="#6A7985" stroke-width="5"/>
<path d="M637.801 336.535C641.358 340.34 647.408 340.351 650.773 336.375C673.369 309.671 688.825 276.868 695.416 241.421C702.613 202.721 698.919 162.609 684.804 126.155C670.688 89.7008 646.784 58.5432 616.114 36.6218C587.943 16.4864 555.226 4.97436 521.497 3.23219C516.533 2.9758 512.5 7.02944 512.5 12L512.5 198.948C512.5 201.23 513.367 203.427 514.925 205.095L637.801 336.535Z" fill="#831D1D" stroke="#6A7985" stroke-width="5"/>
<path d="M3 323.656V67.6957C3 32.4957 28.0535 6 63.3757 6H146.774H239.384C274.708 6 297.712 32.4934 297.712 67.6957V82.9921V159.984C297.712 195.655 271.597 219.13 239.384 219.13H184.125C159.782 219.13 139.648 194.695 139.648 170.437C139.648 147.492 161.094 121.743 184.125 121.743V100.328H133.983V121.743V323.656C133.983 358.856 102.279 393 66.9565 393C31.6343 393 3 358.856 3 323.656Z" fill="#831D1D"/>
<path d="M714 68.5C714 33.9822 742.073 6 776.703 6C811.333 6 890.571 6 960.297 6C994.929 6 1023 33.98 1023 68.5C1023 80.411 1023 98.9999 1023 98.9999V146.5C1023 146.5 1023 258.5 1023 330.5C1023 363.931 993.837 393 960.297 393C926.757 393 897.594 370 897.594 330.5C897.594 240.094 897.594 98.9999 897.594 98.9999H839.406V330.5C839.406 365.018 811.333 393 776.703 393C742.073 393 714 365.018 714 330.5V68.5Z" fill="#831D1D" stroke="#6A7985" stroke-width="5"/>
<path d="M1038 68.5C1038 33.9822 1066.07 6 1100.7 6C1135.33 6 1223.6 6 1300.34 6C1326.81 6 1349.5 24.5 1349.5 52.5C1349.5 79.9793 1327.93 104 1300.34 104C1246.86 104 1161.9 104 1161.9 104V291.5H1241.15V267.5C1241.15 267.5 1241.17 264 1241.15 264C1215.07 264 1197.01 246.452 1197.01 224.25C1197.01 201.25 1214.84 184.5 1241.15 184.5C1258.21 184.5 1280.17 184.5 1300.34 184.5C1323.42 184.5 1349.5 198.5 1349.5 228.5C1349.5 265.99 1349.5 294.5 1349.5 330.5C1349.5 366.194 1325.92 393 1294.32 393C1218.71 393 1135.33 393 1100.7 393C1066.07 393 1038 365.018 1038 330.5V68.5Z" fill="#831D1D" stroke="#6A7985" stroke-width="5"/>
</svg>
