<?xml version="1.0" standalone="no"?>
<!DOCTYPE svg PUBLIC "-//W3C//DTD SVG 20010904//EN"
 "http://www.w3.org/TR/2001/REC-SVG-20010904/DTD/svg10.dtd">
<svg version="1.0" xmlns="http://www.w3.org/2000/svg"
 width="600.000000pt" height="703.000000pt" viewBox="0 0 600.000000 703.000000"
 preserveAspectRatio="xMidYMid meet">
<metadata>
Created by potrace 1.16, written by Peter Selinger 2001-2019
</metadata>
<g transform="translate(0.000000,703.000000) scale(0.100000,-0.100000)"
fill="#000000" stroke="none">
<path d="M5070 6870 c0 -5 -13 -10 -30 -10 -16 0 -30 -4 -30 -10 0 -5 -13 -10
-30 -10 -16 0 -30 -4 -30 -10 0 -5 -9 -10 -20 -10 -11 0 -20 -4 -20 -10 0 -5
-8 -10 -18 -10 -10 0 -24 -9 -32 -20 -8 -11 -21 -20 -28 -20 -8 0 -27 -13 -42
-30 -15 -16 -32 -30 -37 -30 -14 -1 -83 -70 -83 -84 0 -8 -13 -26 -30 -39 -16
-14 -30 -33 -30 -41 0 -9 -4 -16 -10 -16 -5 0 -10 -9 -10 -20 0 -11 -4 -20
-10 -20 -5 0 -10 -13 -10 -30 0 -16 -4 -30 -10 -30 -5 0 -10 -18 -10 -40 0
-22 -5 -40 -11 -40 -6 0 -9 -42 -8 -120 1 -82 -3 -125 -11 -135 -7 -8 -10 -21
-7 -29 3 -8 -1 -20 -8 -26 -16 -13 -15 -44 2 -61 6 -6 9 -18 6 -26 -3 -7 3
-23 13 -34 18 -19 16 -22 -104 -142 -67 -67 -122 -128 -122 -135 0 -7 -9 -16
-20 -20 -11 -4 -102 -89 -203 -190 -101 -100 -186 -182 -190 -182 -4 0 -7 56
-7 124 0 73 -4 127 -10 131 -5 3 -10 26 -10 50 0 24 -4 47 -10 50 -5 3 -10 15
-10 25 0 11 -9 35 -20 55 -24 42 -11 46 45 15 20 -11 44 -20 55 -20 10 0 22
-4 25 -10 3 -5 42 -10 85 -10 43 0 82 5 85 10 3 6 21 10 39 10 19 0 39 7 46
15 7 9 29 23 49 32 41 18 111 81 111 99 0 6 7 17 15 24 8 6 30 44 50 83 34 71
35 75 35 194 0 70 -4 124 -10 128 -5 3 -10 17 -10 31 0 13 -4 24 -10 24 -5 0
-10 9 -10 20 0 11 -4 20 -10 20 -5 0 -10 7 -10 16 0 9 -13 29 -30 44 -16 15
-30 33 -30 39 0 16 -87 101 -103 101 -7 0 -19 9 -27 20 -8 11 -22 20 -32 20
-10 0 -18 5 -18 10 0 6 -9 10 -20 10 -11 0 -20 5 -20 10 0 6 -9 10 -20 10 -11
0 -20 5 -20 10 0 6 -18 10 -40 10 -22 0 -40 5 -40 10 0 6 -41 10 -104 10 -59
0 -108 -4 -111 -10 -3 -5 -21 -10 -39 -10 -19 0 -39 -7 -46 -15 -7 -9 -32 -24
-54 -35 -84 -38 -196 -182 -196 -251 0 -15 -4 -31 -10 -34 -5 -3 -10 -35 -10
-70 0 -35 5 -67 10 -70 9 -6 15 -75 6 -75 -2 0 -30 14 -61 30 -31 17 -65 30
-75 30 -11 0 -22 5 -25 10 -3 6 -26 10 -51 10 -24 0 -44 5 -44 10 0 6 -75 10
-205 10 -130 0 -205 -4 -205 -10 0 -5 -15 -10 -34 -10 -19 0 -38 -4 -41 -10
-3 -5 -14 -10 -24 -10 -18 0 -141 -59 -169 -81 -9 -8 -27 -20 -40 -27 -21 -12
-26 -11 -41 7 -10 12 -26 21 -35 21 -9 0 -16 3 -16 8 0 11 -51 32 -81 32 -14
0 -32 7 -39 16 -15 17 -18 70 -6 100 12 31 9 163 -4 179 -7 8 -10 15 -7 15 3
0 0 12 -8 26 -24 47 -151 95 -170 64 -3 -5 -16 -10 -29 -10 -40 0 -106 -87
-106 -139 0 -17 -4 -33 -10 -36 -5 -3 -10 -44 -10 -90 0 -46 5 -87 10 -90 6
-3 10 -24 10 -46 0 -39 -17 -69 -40 -69 -16 0 -120 -107 -120 -125 0 -8 -4
-15 -10 -15 -5 0 -10 -9 -10 -20 0 -11 -4 -20 -10 -20 -5 0 -10 -18 -10 -40 0
-22 -4 -40 -10 -40 -13 0 -13 -127 0 -135 5 -3 10 -21 10 -40 0 -19 4 -37 10
-40 5 -3 10 -14 10 -24 0 -26 47 -115 75 -141 14 -13 25 -29 25 -36 0 -7 14
-24 30 -37 35 -30 37 -37 10 -37 -11 0 -20 -4 -20 -10 0 -5 -13 -10 -30 -10
-16 0 -30 -4 -30 -10 0 -5 -20 -10 -45 -10 -35 0 -52 6 -70 25 -26 25 -34 78
-15 90 5 3 10 21 10 40 0 19 5 37 10 40 13 8 13 72 0 80 -5 3 -10 19 -10 36 0
49 -49 117 -104 144 -40 20 -164 20 -204 0 -60 -31 -81 -130 -42 -200 11 -20
20 -44 20 -55 0 -10 4 -22 10 -25 5 -3 10 -16 10 -29 0 -12 5 -27 12 -34 9 -9
9 -12 0 -12 -7 0 -12 -11 -12 -25 0 -26 -78 -115 -101 -115 -6 0 -28 -18 -49
-40 -21 -22 -44 -40 -50 -40 -16 0 -40 -26 -40 -42 0 -8 -9 -20 -20 -28 -14
-10 -20 -26 -20 -52 0 -21 -4 -38 -10 -38 -5 0 -10 -8 -10 -18 0 -10 -12 -25
-28 -32 -15 -8 -46 -32 -70 -54 -41 -39 -42 -42 -42 -103 0 -45 -4 -63 -13
-63 -15 0 -87 -71 -87 -86 0 -6 -14 -23 -31 -40 -18 -17 -28 -36 -26 -46 3
-10 -1 -22 -9 -29 -10 -8 -14 -34 -14 -85 0 -71 8 -97 39 -137 8 -9 19 -27 25
-39 13 -25 100 -76 133 -77 12 -1 25 -5 28 -11 4 -6 70 -10 165 -10 95 0 161
4 165 10 3 6 26 10 50 10 24 0 47 5 50 10 3 6 26 10 50 10 24 0 47 4 50 10 3
6 17 10 30 10 13 0 27 4 30 10 3 6 22 10 41 10 19 0 34 5 34 10 0 6 14 10 30
10 17 0 30 5 30 10 0 6 14 10 30 10 17 0 30 5 30 10 0 6 9 10 20 10 11 0 20 5
20 10 0 6 14 10 30 10 17 0 30 5 30 10 0 6 9 10 20 10 11 0 20 5 20 10 0 6 14
10 30 10 17 0 30 5 30 10 0 6 9 10 19 10 11 0 21 3 23 8 5 12 138 76 144 69 4
-3 -10 -39 -30 -79 -20 -40 -36 -78 -36 -84 0 -25 -33 -74 -49 -74 -38 0 -120
-53 -189 -123 -55 -55 -84 -95 -117 -162 -25 -49 -45 -97 -45 -106 0 -10 -5
-21 -10 -24 -6 -3 -10 -21 -10 -40 0 -19 -4 -37 -10 -40 -13 -8 -13 -262 0
-270 5 -3 10 -17 10 -30 0 -13 5 -27 10 -30 6 -3 10 -16 10 -29 0 -12 5 -27
11 -33 8 -8 0 -21 -30 -48 -36 -33 -41 -43 -41 -81 0 -24 5 -44 10 -44 6 0 10
-7 10 -15 0 -9 46 -61 102 -117 56 -56 97 -103 90 -106 -7 -2 -12 -17 -12 -33
0 -16 -4 -29 -10 -29 -5 0 -10 -9 -10 -20 0 -11 -4 -20 -10 -20 -5 0 -10 -9
-10 -20 0 -11 -4 -20 -10 -20 -5 0 -10 -9 -10 -20 0 -11 -4 -20 -10 -20 -5 0
-10 -13 -10 -30 0 -16 -4 -30 -10 -30 -5 0 -10 -9 -10 -20 0 -11 -3 -20 -7
-20 -11 0 -33 -50 -33 -71 0 -10 -4 -21 -10 -24 -5 -3 -10 -15 -10 -25 0 -11
-9 -35 -20 -55 -11 -20 -20 -44 -20 -55 0 -10 -4 -22 -10 -25 -5 -3 -10 -14
-10 -24 0 -34 -24 -71 -47 -71 -12 0 -25 -5 -28 -10 -3 -5 -16 -10 -29 -10
-13 0 -31 -9 -41 -20 -23 -25 -45 -25 -90 0 -20 11 -44 20 -55 20 -10 0 -22 5
-25 10 -3 6 -17 10 -30 10 -13 0 -27 5 -30 10 -3 6 -35 10 -71 10 -36 0 -64 4
-64 10 0 13 -107 13 -115 0 -3 -5 -30 -10 -60 -10 -30 0 -57 -4 -60 -10 -3 -6
-15 -10 -26 -10 -10 0 -27 -4 -37 -9 -9 -5 -28 -14 -42 -20 -36 -17 -67 -36
-87 -53 -10 -8 -26 -18 -36 -21 -9 -4 -20 -15 -24 -24 -3 -10 -13 -26 -21 -35
-22 -26 -62 -109 -62 -129 0 -10 -5 -21 -10 -24 -13 -8 -13 -172 0 -180 5 -3
10 -17 10 -30 0 -13 5 -27 10 -30 13 -8 13 -55 0 -55 -16 0 -12 -123 5 -156 8
-17 26 -41 40 -54 16 -15 25 -34 25 -54 0 -27 6 -34 48 -53 26 -13 60 -23 74
-23 15 0 30 -4 33 -10 3 -5 39 -10 80 -10 41 0 77 -4 80 -10 8 -13 437 -14
450 -1 6 5 51 12 100 15 118 6 188 16 200 27 5 5 28 9 52 9 24 0 43 5 43 10 0
6 18 10 40 10 22 0 40 5 40 10 0 6 22 10 48 10 36 0 51 -5 62 -20 15 -21 54
-27 65 -10 3 6 21 10 40 10 19 0 37 5 40 10 3 6 14 10 24 10 9 0 78 30 152 68
l134 67 3 53 c2 32 -1 52 -7 52 -6 0 -11 14 -11 30 0 17 -4 30 -10 30 -5 0
-10 15 -10 34 0 19 5 38 10 41 18 11 10 81 -14 130 -34 67 -81 111 -153 146
-53 25 -66 37 -82 72 -27 58 -86 107 -131 107 -11 0 -20 5 -20 10 0 6 -9 10
-20 10 -16 0 -20 7 -20 30 0 17 5 30 10 30 6 0 10 23 10 50 0 28 5 50 10 50 6
0 10 20 10 44 0 25 5 48 10 51 6 3 10 26 10 50 0 24 4 47 10 50 5 3 10 21 10
40 0 19 5 37 10 40 6 3 10 19 10 34 0 39 22 81 42 81 10 0 33 -9 53 -20 20
-11 49 -20 65 -20 16 0 32 -5 35 -10 3 -5 33 -10 66 -10 62 0 89 13 89 44 0 9
5 16 10 16 6 0 10 9 10 20 0 19 7 20 120 20 l120 0 0 -30 c0 -16 4 -30 9 -30
5 0 11 -9 14 -20 4 -15 14 -20 41 -20 20 0 36 -4 36 -10 0 -13 87 -13 95 0 3
6 25 10 49 10 23 0 47 5 53 11 6 6 21 9 34 7 20 -2 23 -8 21 -31 -2 -15 2 -35
9 -44 8 -8 12 -28 11 -43 -2 -16 1 -31 7 -35 6 -3 11 -26 11 -51 0 -24 5 -44
10 -44 6 0 10 -27 10 -60 0 -33 4 -60 10 -60 6 0 10 -28 10 -64 0 -36 5 -68
10 -71 6 -3 10 -30 10 -60 0 -30 5 -57 10 -60 6 -3 10 -28 10 -56 0 -41 -3
-49 -19 -49 -10 0 -29 -8 -42 -18 -13 -10 -33 -22 -43 -26 -10 -3 -16 -9 -13
-13 4 -3 2 -13 -5 -20 -6 -8 -11 -36 -9 -62 3 -58 -11 -76 -67 -85 -22 -3 -45
-13 -53 -22 -7 -9 -23 -20 -36 -25 -13 -5 -23 -14 -23 -22 0 -7 -9 -19 -20
-27 -12 -8 -20 -26 -20 -42 0 -15 -4 -28 -10 -28 -6 0 -10 -33 -10 -80 0 -47
4 -80 10 -80 6 0 10 -18 10 -40 0 -22 -4 -40 -10 -40 -5 0 -10 -9 -10 -20 0
-11 -4 -20 -10 -20 -5 0 -10 -16 -10 -35 0 -29 9 -44 45 -80 24 -25 50 -45 58
-45 7 0 19 -9 27 -20 8 -11 22 -20 32 -20 10 0 18 -4 18 -10 0 -5 9 -10 19
-10 11 0 21 -3 23 -7 6 -16 91 -53 118 -53 16 0 32 -4 35 -10 3 -5 19 -10 35
-10 16 0 32 5 35 10 8 12 82 13 89 1 4 -5 29 -12 56 -16 27 -4 52 -11 56 -16
3 -5 20 -9 39 -9 19 0 37 -4 40 -10 3 -5 21 -10 40 -10 19 0 37 -4 40 -10 3
-5 26 -10 50 -10 24 0 47 -5 50 -10 3 -6 35 -10 70 -10 35 0 67 -5 70 -10 8
-14 432 -14 440 0 3 6 31 10 61 10 30 0 54 5 54 10 0 6 23 10 50 10 28 0 50 5
50 10 0 6 11 10 24 10 14 0 28 5 31 10 3 6 14 10 24 10 20 0 52 15 91 42 l24
18 -31 32 -32 33 29 25 c27 23 29 31 30 91 0 68 -15 95 -62 112 -20 7 -25 61
-8 72 13 8 13 102 0 110 -5 3 -10 24 -10 45 0 22 -9 55 -20 75 -11 19 -17 35
-13 35 4 0 -19 27 -52 60 -57 58 -177 130 -216 130 -8 0 -19 4 -25 9 -21 20
-324 40 -324 22 0 -7 -23 -11 -54 -11 -30 0 -58 -5 -61 -10 -3 -6 -15 -10 -25
-10 -11 0 -35 -9 -55 -20 -48 -27 -55 -25 -55 10 0 17 -4 30 -10 30 -5 0 -10
7 -10 15 0 20 -45 65 -65 65 -8 0 -15 5 -15 10 0 6 -12 10 -26 10 -35 0 -54
22 -54 64 0 20 -4 36 -10 36 -5 0 -10 23 -10 50 0 28 -4 50 -10 50 -5 0 -10
18 -10 40 0 22 -4 40 -10 40 -5 0 -10 15 -10 34 0 19 -4 38 -10 41 -5 3 -10
17 -10 30 0 13 -4 27 -10 30 -5 3 -10 21 -10 40 0 19 -4 37 -10 40 -5 3 -10
17 -10 30 0 13 -4 27 -10 30 -5 3 -10 19 -10 35 0 16 -9 45 -20 65 -11 20 -20
42 -20 50 0 8 -9 30 -20 50 -11 20 -20 43 -20 51 0 20 24 44 44 44 9 0 16 5
16 10 0 6 6 10 13 10 7 0 23 9 35 20 12 11 26 20 32 20 15 0 100 87 100 103 0
20 -28 73 -45 87 -8 7 -15 17 -15 23 0 6 -19 30 -41 53 -27 28 -40 48 -36 58
9 22 40 20 62 -4 10 -11 24 -20 30 -20 7 0 18 -7 25 -15 7 -9 33 -25 56 -35
24 -11 45 -24 48 -29 4 -5 62 -37 131 -71 69 -34 127 -65 130 -70 8 -13 66
-40 86 -40 11 0 24 -9 31 -20 7 -11 24 -20 38 -20 14 0 32 -9 40 -20 8 -11 22
-20 32 -20 10 0 18 -4 18 -10 0 -5 9 -10 20 -10 11 0 20 -4 20 -10 0 -5 8 -10
18 -10 10 0 24 -9 32 -20 8 -11 26 -20 40 -20 14 0 32 -9 40 -20 8 -11 22 -20
32 -20 10 0 18 -4 18 -10 0 -5 8 -10 18 -10 10 0 24 -9 32 -20 8 -11 22 -20
32 -20 10 0 18 -4 18 -10 0 -5 6 -10 13 -10 8 0 22 -9 32 -20 10 -11 23 -20
30 -20 7 0 20 -9 30 -20 10 -11 24 -20 30 -20 7 0 19 -7 26 -16 7 -9 22 -20
34 -25 42 -20 68 -38 103 -72 21 -19 42 -36 49 -38 17 -6 223 -210 223 -221 0
-6 14 -23 30 -38 16 -15 30 -34 30 -42 0 -7 9 -20 20 -28 11 -8 20 -22 20 -32
0 -10 5 -18 10 -18 6 0 10 -9 10 -20 0 -11 5 -20 10 -20 6 0 10 -9 10 -20 0
-11 5 -20 10 -20 6 0 10 -9 10 -20 0 -11 5 -20 10 -20 6 0 10 -13 10 -30 0
-16 5 -30 10 -30 6 0 10 -18 10 -40 0 -22 5 -40 10 -40 6 0 10 -60 10 -159 0
-96 -4 -162 -10 -166 -5 -3 -10 -21 -10 -40 0 -19 -4 -37 -10 -40 -6 -3 -10
-17 -10 -30 0 -13 -4 -27 -10 -30 -5 -3 -10 -14 -10 -24 0 -23 -26 -75 -45
-91 -8 -7 -15 -18 -15 -25 0 -6 -9 -20 -20 -30 -11 -10 -20 -23 -20 -30 0 -6
-18 -29 -40 -50 -22 -21 -40 -45 -40 -52 0 -7 -6 -13 -13 -13 -7 0 -44 -31
-82 -70 -38 -38 -75 -70 -81 -70 -6 0 -19 -9 -29 -20 -10 -11 -23 -20 -30 -20
-7 0 -20 -9 -30 -20 -10 -11 -24 -20 -30 -20 -7 0 -18 -6 -24 -14 -14 -16
-310 -166 -328 -166 -7 0 -28 -9 -48 -20 -20 -11 -44 -20 -55 -20 -10 0 -22
-4 -25 -10 -3 -5 -17 -10 -31 -10 -13 0 -24 -4 -24 -10 0 -5 -9 -10 -20 -10
-11 0 -20 -4 -20 -10 0 -5 -13 -10 -30 -10 -16 0 -30 -4 -30 -10 0 -5 -13 -10
-30 -10 -16 0 -30 -4 -30 -10 0 -5 -9 -10 -20 -10 -11 0 -20 -4 -20 -10 0 -5
-13 -10 -28 -10 -16 0 -34 -8 -42 -20 -8 -11 -22 -20 -31 -20 -21 0 -74 -27
-89 -45 -7 -8 -18 -15 -24 -15 -16 -1 -56 -36 -56 -51 0 -8 7 -6 19 5 27 25
151 86 173 86 10 0 18 5 18 10 0 6 9 10 20 10 11 0 20 5 20 10 0 6 14 10 30
10 17 0 30 5 30 10 0 6 9 10 20 10 11 0 20 5 20 10 0 6 14 10 30 10 17 0 30 5
30 10 0 6 14 10 30 10 17 0 30 5 30 10 0 6 9 10 20 10 11 0 20 5 20 10 0 6 11
10 24 10 14 0 28 5 31 10 3 6 15 10 25 10 11 0 35 9 55 20 20 11 42 20 50 20
8 0 30 9 50 20 20 11 44 20 54 20 10 0 24 7 31 15 6 8 58 37 115 65 57 28 109
57 115 65 7 8 18 15 24 15 7 0 25 14 41 30 16 17 34 30 40 30 6 0 29 18 50 40
21 22 45 40 52 40 7 0 13 6 13 13 0 7 32 44 70 82 39 38 70 75 70 81 0 6 6 17
14 24 19 15 106 190 106 212 0 9 5 20 10 23 6 3 10 21 10 40 0 19 4 37 10 40
6 3 10 44 10 90 0 46 5 87 10 90 14 8 13 38 -2 53 -7 7 -11 36 -9 72 1 37 -2
60 -8 60 -6 0 -11 18 -11 40 0 22 -4 40 -10 40 -5 0 -10 14 -10 30 0 17 -4 30
-10 30 -5 0 -10 9 -10 20 0 11 -4 20 -10 20 -5 0 -10 12 -10 28 0 16 -8 32
-20 40 -11 7 -20 21 -20 32 0 11 -4 20 -10 20 -5 0 -10 6 -10 13 0 8 -9 22
-20 32 -11 10 -20 23 -20 29 0 14 -312 326 -326 326 -5 0 -25 16 -44 35 -19
19 -39 35 -46 35 -6 0 -17 7 -24 15 -7 9 -32 24 -54 35 -23 10 -50 28 -61 40
-11 12 -39 30 -63 41 -24 11 -46 26 -49 34 -3 8 -14 15 -24 15 -10 0 -19 5
-19 10 0 6 -8 10 -18 10 -10 0 -24 9 -32 20 -8 11 -22 20 -32 20 -10 0 -18 5
-18 10 0 6 -9 10 -20 10 -11 0 -20 5 -20 10 0 6 -8 10 -18 10 -10 0 -24 9 -32
20 -8 11 -22 20 -32 20 -10 0 -18 5 -18 10 0 6 -9 10 -20 10 -11 0 -20 5 -20
10 0 6 -9 10 -20 10 -11 0 -20 5 -20 10 0 6 -9 10 -20 10 -11 0 -20 5 -20 10
0 6 -7 10 -16 10 -9 0 -24 8 -33 18 -9 10 -60 39 -113 66 -54 26 -101 52 -104
57 -3 5 -25 18 -49 29 -24 11 -47 24 -50 30 -3 6 -25 19 -48 29 -24 11 -51 29
-61 40 -11 12 -24 21 -31 21 -6 0 -24 14 -40 30 -25 26 -28 33 -17 50 7 11 12
29 12 39 0 11 5 23 10 26 6 3 10 40 10 81 0 43 4 74 10 74 6 0 10 9 10 20 0
11 -4 20 -10 20 -6 0 -10 27 -10 60 0 33 -4 60 -10 60 -5 0 -10 14 -10 30 0
17 -4 30 -10 30 -5 0 -10 9 -10 20 0 11 -4 20 -10 20 -5 0 -10 6 -10 13 0 8
-9 22 -20 32 -11 10 -20 23 -20 29 0 13 -51 66 -64 66 -5 0 -18 7 -28 17 -10
9 -28 21 -41 27 -21 11 -22 18 -25 144 l-3 132 35 35 c20 19 40 35 46 35 6 0
33 23 60 50 27 28 54 50 60 50 6 0 33 23 60 50 27 28 54 50 60 50 6 0 29 18
50 40 36 37 38 38 54 21 9 -10 16 -27 16 -38 0 -11 9 -28 20 -38 11 -10 20
-23 20 -29 0 -19 102 -111 141 -129 20 -9 42 -23 49 -32 7 -8 23 -15 36 -15
12 0 26 -4 29 -10 3 -5 21 -10 40 -10 19 0 37 -4 40 -10 8 -13 175 -13 175 0
0 6 13 10 28 10 31 0 123 43 142 65 7 8 18 15 24 15 7 0 34 23 61 50 27 28 45
50 40 50 -5 0 4 14 20 30 16 17 26 30 22 30 -3 0 7 25 24 56 16 31 29 64 29
74 0 11 5 22 10 25 6 4 10 55 10 120 0 65 -4 116 -10 120 -5 3 -10 14 -10 24
0 23 -26 75 -45 91 -8 7 -13 15 -10 19 7 12 -107 117 -142 132 -18 8 -33 20
-33 26 0 16 159 183 174 183 6 0 73 61 149 135 123 121 141 135 172 135 19 0
35 3 35 8 0 4 12 13 27 20 32 14 113 16 113 2 0 -6 31 -10 74 -10 41 0 78 5
81 10 3 6 25 10 49 10 23 0 47 5 53 11 8 8 13 8 17 0 9 -14 196 -15 196 -1 0
6 13 10 28 10 16 0 34 8 42 20 8 11 20 20 28 20 18 0 82 66 82 85 0 8 5 15 10
15 6 0 10 30 10 70 0 40 -4 70 -10 70 -5 0 -10 9 -10 20 0 13 -7 20 -20 20
-19 0 -28 15 -12 22 15 6 52 91 52 118 0 16 5 32 10 35 6 3 10 35 10 70 0 35
-4 67 -10 70 -5 3 -10 15 -10 26 0 29 -64 89 -95 89 -24 0 -25 2 -25 60 0 33
-4 60 -10 60 -5 0 -10 14 -10 30 0 17 -4 30 -10 30 -5 0 -10 7 -10 15 0 9 -20
36 -45 60 -24 25 -51 45 -60 45 -8 0 -15 5 -15 10 0 6 -9 10 -20 10 -11 0 -20
5 -20 10 0 6 -11 10 -24 10 -14 0 -28 5 -31 10 -4 6 -55 10 -121 10 -69 0
-114 -4 -114 -10z m262 -41 c64 -21 130 -79 162 -141 25 -51 28 -68 27 -147
-1 -174 -94 -332 -214 -362 -54 -13 -80 -2 -59 24 22 26 32 112 21 179 -18
110 -100 247 -169 282 -37 18 -38 13 -4 -22 105 -110 164 -266 143 -377 -15
-82 -95 -143 -170 -130 -69 12 -161 99 -175 164 -11 55 -48 161 -56 161 -10 0
-10 -20 1 -56 5 -16 14 -56 21 -89 7 -33 23 -79 36 -103 l23 -42 -23 -16 c-33
-21 -83 -34 -136 -34 l-45 -1 29 -15 c37 -20 105 -11 165 22 38 21 46 22 60
11 21 -19 77 -37 112 -37 24 0 32 -8 53 -51 24 -47 25 -52 11 -79 -27 -53 -11
-134 31 -158 10 -6 14 -14 9 -22 -11 -18 -225 -6 -285 15 -141 51 -229 124
-281 233 -27 55 -32 80 -36 166 -8 158 24 256 126 386 103 129 256 229 391
254 42 8 193 -2 232 -15z m274 -355 c38 -25 54 -66 54 -136 0 -115 -55 -216
-157 -291 -54 -38 -69 -45 -133 -57 -72 -14 -138 5 -182 52 -21 21 -38 44 -38
51 0 27 61 50 135 51 62 1 77 5 114 31 58 39 113 124 140 215 31 103 30 100
36 100 3 0 17 -7 31 -16z m-3436 -83 c27 -52 2 -178 -42 -205 -41 -25 -67 59
-46 145 18 73 64 104 88 60z m946 -241 c23 -9 26 -14 20 -42 -3 -18 -16 -42
-28 -55 -19 -20 -19 -23 -4 -23 9 0 26 5 37 11 28 14 238 13 291 -2 79 -23
121 -52 152 -102 81 -131 -3 -315 -184 -404 -88 -44 -168 -63 -270 -64 l-85 0
45 -15 c89 -30 246 1 366 71 90 53 194 182 194 242 0 8 5 11 10 8 6 -3 10 -21
10 -38 -1 -144 -161 -287 -402 -359 -43 -13 -78 -25 -78 -28 0 -3 17 -16 38
-28 46 -30 123 -129 158 -207 23 -51 27 -73 27 -150 0 -55 -7 -112 -17 -147
-15 -51 -25 -63 -104 -131 -48 -41 -103 -89 -122 -107 -69 -65 -100 -80 -162
-80 -44 0 -59 4 -68 18 -11 19 -5 23 -72 -57 -68 -81 -190 -146 -295 -159
-106 -12 -179 4 -250 55 -86 62 -105 186 -31 212 24 9 30 7 34 -7 25 -77 47
-102 107 -123 52 -18 113 0 202 60 108 73 211 217 229 321 6 30 2 41 -31 80
-21 25 -69 72 -108 106 -38 33 -85 80 -103 105 -95 127 -151 169 -226 169 -19
0 -52 10 -73 23 -33 19 -51 22 -138 21 -59 0 -125 -8 -162 -17 -33 -10 -67
-15 -75 -11 -16 6 -85 94 -115 145 -50 88 -66 149 -67 254 0 88 4 107 27 157
29 62 125 168 151 168 9 0 19 -7 22 -15 8 -20 71 -55 100 -55 49 0 122 57 139
109 8 27 31 33 79 21 92 -24 159 -71 234 -165 l31 -40 -9 32 c-4 18 -20 48
-35 67 -23 31 -25 37 -11 42 31 12 136 -28 180 -68 21 -19 46 -24 46 -9 0 18
-84 81 -122 91 -20 6 -40 15 -43 20 -12 19 128 72 250 95 85 16 273 19 311 5z
m2514 -106 c23 -41 15 -102 -18 -143 -61 -77 -171 -111 -306 -96 -56 6 -72 12
-101 39 -30 29 -35 40 -35 79 0 54 17 64 63 40 19 -10 57 -16 98 -17 55 0 77
5 130 31 35 18 77 46 93 62 36 38 58 39 76 5z m-1035 -50 c26 -49 135 -164
155 -164 4 0 29 -12 55 -26 54 -31 45 -48 -20 -38 -111 17 -229 128 -235 221
-6 80 6 82 45 7z m-3021 -328 c83 -49 120 -185 81 -300 -23 -66 -15 -94 32
-126 52 -33 90 -31 278 14 237 57 346 53 380 -15 21 -40 19 -66 -8 -93 -19
-19 -37 -24 -116 -29 -103 -8 -231 -35 -231 -50 0 -5 12 -6 28 -2 15 4 95 9
177 12 140 5 154 3 197 -16 65 -31 86 -88 54 -150 -24 -45 -57 -54 -241 -62
-93 -4 -173 -8 -177 -8 -5 -1 -8 -5 -8 -10 0 -5 76 -11 169 -13 l170 -3 31
-30 c27 -25 31 -35 26 -64 -7 -44 -29 -67 -96 -101 -56 -28 -87 -35 -278 -65
-127 -20 -144 -26 -171 -63 -47 -67 -173 -121 -283 -122 -175 -1 -383 131
-438 278 -12 31 -26 84 -32 117 -10 63 -4 183 11 213 5 9 14 29 21 44 17 36
37 56 117 121 162 131 178 172 122 318 -40 103 -37 159 10 201 42 37 115 39
175 4z m-494 -843 c1 -103 53 -244 111 -302 39 -40 37 -51 -11 -51 -133 0
-229 138 -206 295 8 49 53 105 87 105 16 0 19 -7 19 -47z m80 -390 c16 -3 44
0 64 7 33 10 38 9 71 -16 49 -37 34 -47 -79 -52 -85 -4 -98 -2 -125 17 -27 19
-29 24 -18 42 9 14 19 18 36 14 13 -3 36 -8 51 -12z m903 -585 c39 -52 57
-119 57 -213 0 -109 -15 -175 -50 -223 -56 -77 -139 -60 -183 37 -16 37 -20
67 -21 157 0 64 4 122 11 135 6 13 18 41 27 61 36 81 115 104 159 46z m547
-115 c82 -69 107 -264 52 -404 -17 -43 -62 -88 -97 -98 -42 -11 -105 2 -123
26 -43 57 -56 99 -60 196 -6 142 29 244 100 287 46 28 90 26 128 -7z m-1396
-1504 c105 -28 144 -41 174 -59 26 -16 31 -24 26 -44 -6 -26 7 -58 39 -93 34
-38 50 -29 26 14 -38 68 -13 140 57 163 39 13 54 7 54 -23 0 -26 29 -72 56
-91 32 -22 91 -37 149 -38 65 -2 98 18 128 76 11 21 26 40 34 43 20 8 71 -16
104 -49 23 -24 29 -38 29 -73 0 -39 -5 -47 -51 -89 -32 -29 -45 -46 -35 -46
33 0 83 28 113 64 28 35 32 36 59 25 16 -7 52 -30 81 -51 99 -75 120 -185 54
-282 -32 -47 -25 -61 15 -31 28 21 31 19 38 -22 4 -21 9 -46 12 -55 8 -29 -55
-71 -200 -133 -35 -16 -163 -55 -177 -55 -3 0 -19 11 -35 25 -31 27 -44 30
-59 17 -12 -11 -148 -47 -230 -61 -242 -43 -565 -43 -775 0 -216 45 -346 141
-325 241 7 32 17 35 36 12 47 -57 230 -142 354 -165 270 -49 438 -49 795 -3
68 9 77 27 10 20 -157 -17 -361 -26 -490 -21 -132 5 -336 34 -385 55 -11 4
-36 13 -55 20 -104 36 -207 116 -247 194 -23 43 -27 64 -27 136 0 72 4 94 27
143 51 107 147 183 287 228 65 20 268 25 334 8z m1945 -300 c25 -57 133 -77
241 -46 36 10 49 20 63 50 10 20 24 37 31 37 25 0 93 -58 109 -93 22 -45 21
-53 -5 -71 -32 -23 -11 -20 61 9 107 42 181 57 298 62 205 10 340 -38 465
-164 67 -67 83 -113 83 -233 -1 -121 -7 -136 -87 -218 -153 -156 -525 -219
-928 -158 -119 18 -140 5 -28 -17 158 -31 265 -40 411 -34 305 14 526 92 626
221 l43 57 24 -22 c18 -17 24 -33 24 -64 0 -169 -342 -290 -768 -271 -205 9
-439 57 -559 116 -33 16 -41 16 -65 4 -36 -18 -47 -18 -121 7 -86 29 -122 46
-192 93 -103 68 -125 106 -84 147 l20 20 37 -23 36 -22 -26 34 c-38 52 -55 90
-63 142 -10 64 16 148 60 197 43 48 132 89 155 72 51 -38 78 -51 104 -51 29 0
29 1 -17 30 -51 32 -67 60 -67 117 0 28 8 44 39 74 43 44 60 43 80 -2z"/>
<path d="M2870 5862 c0 -4 15 -13 33 -20 136 -56 222 -120 273 -203 31 -50 40
-58 42 -41 8 51 -58 150 -132 201 -65 45 -216 89 -216 63z"/>
</g>
</svg>
