<?xml version="1.0" encoding="UTF-8"?>
<svg xmlns="http://www.w3.org/2000/svg" xmlns:xlink="http://www.w3.org/1999/xlink" width="925px" height="269px" viewBox="0 0 925 269" version="1.1">
<g id="surface1">
<path style=" stroke:none;fill-rule:nonzero;fill:rgb(0%,0%,0%);fill-opacity:1;" d="M 809.457031 2.769531 C 751.535156 7.128906 703.214844 49.980469 690.710938 108.085938 C 688.050781 120.59375 687.644531 141.25 689.984375 154.8125 C 698.617188 206.78125 736.773438 248.339844 787.675781 261.253906 C 798.804688 264.074219 807.4375 265.125 819.863281 265.125 C 829.136719 265.125 832.929688 264.722656 845.675781 262.21875 C 853.90625 260.527344 861.324219 258.992188 862.132812 258.75 C 863.664062 258.347656 863.664062 256.8125 863.179688 195.804688 C 862.9375 161.425781 862.617188 133.179688 862.457031 133.019531 C 862.292969 132.9375 845.351562 132.699219 824.699219 132.539062 L 787.191406 132.214844 L 787.191406 183.859375 L 799.128906 184.101562 L 810.988281 184.347656 L 810.988281 212.753906 L 806.875 212.1875 C 801.308594 211.460938 790.660156 207.988281 784.769531 205.003906 C 760.328125 192.738281 744.03125 169.578125 740.808594 142.625 C 736.371094 105.582031 760.003906 69.511719 796.066406 58.132812 C 811.390625 53.289062 824.21875 53.207031 844.949219 57.726562 C 845.675781 57.890625 848.820312 50.300781 854.632812 34.566406 C 859.390625 21.65625 863.339844 10.761719 863.339844 10.195312 C 863.503906 7.851562 840.351562 3.09375 825.507812 2.449219 C 821.3125 2.285156 814.054688 2.449219 809.457031 2.769531 Z M 809.457031 2.769531 "/>
<path style=" stroke:none;fill-rule:nonzero;fill:rgb(0%,0%,0%);fill-opacity:1;" d="M 336.335938 3.5 C 279.222656 12.453125 235.902344 54.417969 224.851562 111.636719 C 222.835938 122.046875 222.835938 145.203125 224.769531 155.777344 C 234.449219 207.746094 271.71875 248.179688 322.136719 261.253906 C 333.835938 264.320312 341.578125 265.207031 354.804688 265.207031 C 376.828125 265.207031 394.820312 260.929688 414.097656 251.164062 C 439.914062 238.011719 459.355469 218.480469 472.421875 192.335938 C 490.734375 155.859375 491.21875 114.621094 473.792969 77.902344 C 456.125 40.859375 423.457031 14.714844 383.039062 5.433594 C 374.492188 3.5 371.503906 3.175781 357.226562 3.011719 C 348.355469 2.933594 338.996094 3.09375 336.335938 3.5 Z M 374.734375 57.082031 C 400.464844 63.621094 421.277344 82.984375 429.910156 108.246094 C 433.539062 118.816406 434.589844 126.242188 434.023438 137.863281 C 432.574219 170.386719 411.4375 198.550781 380.621094 209.039062 C 341.980469 222.191406 299.953125 204.199219 282.527344 166.996094 C 277.203125 155.617188 275.753906 148.597656 275.753906 134.230469 C 275.753906 124.546875 276.074219 120.351562 277.285156 115.671875 C 285.433594 83.550781 310.921875 60.308594 343.59375 55.144531 C 351.417969 53.9375 365.859375 54.820312 374.734375 57.082031 Z M 374.734375 57.082031 "/>
<path style=" stroke:none;fill-rule:nonzero;fill:rgb(0%,0%,0%);fill-opacity:1;" d="M 573.417969 6.726562 C 534.699219 12.859375 505.820312 39.167969 499.691406 74.03125 C 499.125 77.257812 498.800781 110.585938 498.800781 172.320312 L 498.800781 265.773438 L 550.425781 265.773438 L 550.425781 174.742188 C 550.425781 99.691406 550.589844 82.984375 551.558594 79.921875 C 553.898438 72.175781 561.15625 64.988281 570.675781 61.035156 C 576.886719 58.535156 589.230469 57.566406 596.574219 59.097656 C 606.734375 61.199219 616.011719 67.976562 620.449219 76.449219 L 622.628906 80.5625 L 622.867188 173.128906 L 623.027344 265.773438 L 675.464844 265.773438 L 675.464844 176.195312 C 675.464844 117.605469 675.144531 83.875 674.578125 78.789062 C 670.789062 44.410156 644.410156 16.652344 607.703125 8.257812 C 599.71875 6.402344 580.839844 5.597656 573.417969 6.726562 Z M 573.417969 6.726562 "/>
<path style=" stroke:none;fill-rule:nonzero;fill:rgb(0%,0%,0%);fill-opacity:1;" d="M 68.59375 9.710938 L 59.964844 10.03125 L 60.125 137.699219 L 60.367188 265.371094 L 107.152344 265.371094 L 107.398438 216.300781 L 107.558594 167.316406 L 127.5625 167.316406 C 138.535156 167.316406 150.554688 166.914062 154.183594 166.511719 C 169.753906 164.496094 184.273438 156.503906 194.84375 144.078125 C 209.683594 126.648438 218.152344 100.980469 215.734375 80.726562 C 212.425781 52.238281 196.535156 27.464844 174.59375 16.488281 C 166.933594 12.617188 161.523438 11.082031 152.328125 9.953125 C 145.796875 9.226562 90.859375 9.066406 68.59375 9.710938 Z M 155.3125 59.585938 C 162.414062 64.667969 168.867188 77.984375 168.867188 87.667969 C 168.867188 99.367188 160.640625 115.183594 152.816406 118.65625 C 150.476562 119.703125 146.039062 120.027344 128.773438 120.351562 L 107.558594 120.675781 L 107.558594 91.785156 C 107.558594 75.804688 107.316406 61.441406 106.992188 59.746094 L 106.511719 56.675781 L 129.175781 56.921875 L 151.765625 57.164062 Z M 155.3125 59.585938 "/>
</g>
</svg>
