<?xml version="1.0" standalone="no"?>
<!DOCTYPE svg PUBLIC "-//W3C//DTD SVG 20010904//EN"
 "http://www.w3.org/TR/2001/REC-SVG-20010904/DTD/svg10.dtd">
<svg version="1.0" xmlns="http://www.w3.org/2000/svg"
 width="8000.000000pt" height="5431.000000pt" viewBox="0 0 8000.000000 5431.000000"
 preserveAspectRatio="xMidYMid meet">
<metadata>
Created by potrace 1.16, written by Peter Selinger 2001-2019
</metadata>
<g transform="translate(0.000000,5431.000000) scale(0.100000,-0.100000)"
fill="#000000" stroke="none">
<path d="M50485 53969 c-411 -51 -735 -149 -1096 -329 -334 -168 -604 -351
-990 -672 -643 -535 -1484 -1138 -3084 -2213 -494 -331 -770 -515 -2810 -1871
-1372 -912 -1884 -1257 -2510 -1689 -1554 -1073 -2614 -1853 -3469 -2554 -527
-431 -998 -868 -1188 -1101 -333 -410 -765 -1104 -1286 -2070 -247 -458 -818
-1583 -1087 -2140 -49 -102 -129 -268 -178 -370 -49 -102 -109 -228 -134 -280
-87 -184 -366 -776 -394 -837 -16 -35 -42 -91 -58 -125 -16 -35 -56 -121 -89
-193 -33 -71 -79 -170 -102 -220 -23 -49 -61 -133 -85 -185 -24 -52 -57 -126
-75 -165 -191 -415 -531 -1169 -762 -1690 -66 -148 -139 -313 -163 -365 -24
-53 -66 -148 -93 -210 -27 -63 -125 -286 -217 -495 -92 -209 -195 -445 -230
-525 -34 -80 -145 -334 -245 -565 -178 -410 -371 -861 -700 -1630 -153 -358
-189 -442 -210 -490 -20 -46 -78 -181 -189 -448 -107 -254 -219 -521 -406
-962 -35 -82 -87 -206 -115 -275 -28 -69 -62 -150 -75 -180 -39 -89 -243 -578
-395 -945 -132 -321 -312 -753 -330 -795 -20 -45 -134 -323 -260 -630 -37 -91
-156 -381 -265 -645 -109 -264 -233 -565 -275 -670 -43 -104 -169 -413 -280
-685 -111 -272 -249 -612 -307 -755 -58 -143 -150 -370 -205 -505 -653 -1612
-1716 -4268 -2238 -5595 -33 -82 -133 -337 -224 -565 -90 -228 -181 -458 -201
-510 -20 -52 -80 -203 -132 -335 -86 -217 -264 -671 -333 -850 -15 -38 -120
-308 -235 -600 -114 -291 -227 -581 -251 -642 -110 -283 -138 -353 -229 -588
-54 -137 -160 -410 -235 -605 -75 -195 -178 -461 -228 -590 -108 -279 -346
-898 -355 -922 -3 -9 -68 -47 -144 -83 -937 -455 -2094 -954 -4043 -1745 -295
-119 -2360 -945 -3085 -1233 -1555 -618 -2605 -1040 -3655 -1469 -228 -94
-462 -189 -520 -213 -860 -351 -2392 -1001 -3180 -1350 -1893 -837 -2963
-1355 -4071 -1970 -1070 -595 -1743 -1062 -2184 -1516 -110 -113 -256 -289
-255 -307 1 -10 240 -124 425 -202 468 -197 873 -302 1405 -364 120 -14 383
-37 820 -71 405 -32 745 -73 1180 -144 450 -74 815 -120 1455 -186 100 -10
534 -45 690 -55 690 -44 1058 -55 1890 -55 558 0 1154 9 1260 20 22 2 114 7
205 10 183 6 633 30 765 40 33 3 94 7 135 10 452 31 969 72 1190 95 52 5 124
12 160 15 92 8 636 65 815 85 50 6 110 12 135 15 25 3 79 10 120 15 41 5 98
11 126 14 61 6 880 110 1039 131 61 9 126 17 145 20 19 2 130 18 245 34 116
17 230 33 253 36 42 5 186 26 422 60 113 17 170 25 530 81 129 19 280 42 335
50 111 16 239 36 1185 189 360 58 705 115 765 126 61 11 232 40 380 64 149 24
511 85 805 134 294 50 657 111 805 135 149 25 308 52 355 61 47 8 222 37 390
65 420 68 639 103 960 156 545 89 821 132 1460 229 278 42 1102 161 1285 185
44 5 148 19 230 30 249 34 756 98 990 125 121 14 234 28 250 30 32 3 56 6 280
30 77 9 156 18 175 20 58 8 419 44 505 50 44 3 91 8 105 10 14 3 81 9 150 15
69 6 143 13 165 15 22 3 123 11 225 20 102 9 208 18 235 20 28 3 115 9 195 15
236 16 292 21 345 25 28 2 100 7 160 10 61 3 142 8 180 10 39 2 108 7 155 10
123 7 467 23 890 41 463 20 1867 19 2280 0 1309 -62 2056 -131 3040 -282 1033
-159 2178 -419 3050 -694 2609 -821 5315 -1378 8050 -1654 190 -19 401 -40
470 -46 69 -6 145 -13 170 -15 41 -4 208 -18 370 -30 36 -2 124 -9 195 -15
140 -11 714 -45 910 -55 66 -3 156 -8 200 -10 128 -8 588 -24 855 -30 135 -3
310 -9 390 -13 188 -9 1409 -9 1610 0 85 4 274 10 420 13 146 3 301 7 345 10
44 2 166 7 270 10 105 3 222 8 260 10 39 2 126 7 195 10 192 9 488 24 560 30
36 2 112 7 170 10 58 3 139 8 180 11 176 12 319 22 415 30 98 7 168 12 255 19
91 7 296 24 365 30 28 2 131 11 230 20 99 8 196 17 215 20 19 2 62 7 95 10
194 17 960 97 1105 115 41 5 98 12 125 15 28 3 232 28 455 56 385 47 550 69
810 105 63 9 130 18 150 20 19 3 80 11 135 20 55 8 118 17 140 20 22 3 96 14
165 24 69 10 145 22 170 25 217 30 1597 255 1840 300 41 7 131 23 200 35 69
12 157 27 195 35 39 7 97 18 130 24 33 6 193 36 355 67 162 30 340 64 395 74
268 50 1065 210 1545 310 107 23 224 47 260 55 141 29 804 173 1100 239 287
64 644 147 660 153 8 3 30 7 49 9 18 2 39 8 45 14 7 5 16 7 19 4 3 -3 11 -3
18 2 7 4 27 8 46 10 18 2 39 7 46 11 6 4 20 6 30 5 9 -2 17 1 17 7 0 6 7 8 15
5 8 -4 21 -1 29 5 7 6 16 8 19 5 3 -3 11 -3 18 2 7 4 28 8 47 10 18 2 40 8 46
14 7 5 15 8 18 5 2 -3 20 0 39 6 19 5 49 12 68 15 19 2 38 7 42 10 5 3 19 7
31 9 47 9 124 27 138 32 8 3 20 7 25 7 47 6 96 19 101 27 3 5 10 7 15 4 5 -4
14 -3 21 1 7 4 28 9 48 11 19 2 36 8 38 12 2 5 12 7 22 4 11 -3 20 -1 20 5 0
6 9 8 20 5 11 -3 20 -1 20 3 0 5 17 10 37 11 21 1 40 8 45 17 5 9 14 16 21 16
7 0 6 -4 -3 -11 -21 -14 53 -2 103 17 21 8 42 12 47 9 5 -3 11 -1 15 5 3 5 1
10 -6 10 -7 0 -9 3 -6 6 4 4 14 1 22 -6 11 -9 19 -10 27 -2 6 6 16 8 23 6 7
-3 16 -1 20 5 3 6 1 11 -6 11 -7 0 -9 3 -6 6 4 4 14 1 22 -6 11 -9 19 -10 27
-2 6 6 16 8 23 6 7 -3 16 -1 19 5 4 6 13 8 20 5 8 -3 17 -1 20 5 4 6 13 8 20
5 8 -3 17 0 21 5 3 6 11 9 16 6 5 -4 14 -3 21 1 7 4 21 9 33 10 11 1 31 5 45
8 14 3 53 12 88 20 36 8 69 22 78 32 14 18 14 18 7 -1 -6 -17 -4 -18 9 -8 8 7
18 10 21 7 3 -3 12 -2 19 2 7 5 16 9 20 9 13 0 21 15 8 15 -7 0 -11 3 -8 6 3
3 16 -1 28 -8 17 -10 24 -10 27 -1 2 7 10 10 18 7 7 -3 16 -1 19 5 4 6 13 8
21 4 8 -3 15 -1 15 5 0 6 8 8 18 6 9 -2 28 2 42 10 53 32 72 37 87 25 10 -9
17 -9 25 -1 9 9 9 12 -2 12 -7 0 -10 3 -7 6 4 4 14 1 22 -6 11 -9 19 -10 27
-2 6 6 17 8 24 5 8 -3 14 0 14 6 0 6 -5 11 -12 11 -6 0 -9 3 -6 6 3 3 16 -1
28 -8 18 -11 22 -11 31 5 8 14 18 17 39 12 20 -4 29 -2 33 9 4 9 14 15 24 15
17 -1 17 -2 1 -6 -27 -7 -22 -22 5 -16 12 3 30 15 39 27 15 18 20 19 37 9 13
-8 22 -9 26 -3 3 6 1 10 -6 10 -7 0 -9 3 -6 6 4 4 13 1 22 -6 9 -7 19 -10 22
-6 4 4 1 11 -7 16 -8 6 -12 10 -7 10 4 0 16 -5 27 -12 23 -14 41 -2 20 13 -13
9 -13 10 1 6 9 -3 22 0 28 6 8 8 11 8 11 0 0 -6 -6 -14 -12 -16 -8 -3 -6 -6 5
-6 9 -1 17 3 17 9 0 5 7 7 15 4 17 -7 21 11 5 19 -6 3 -5 4 2 3 7 -2 42 5 77
15 44 13 69 15 82 9 12 -7 20 -7 24 0 3 5 1 10 -6 10 -7 0 -9 3 -6 6 4 4 13 1
22 -6 9 -7 19 -10 22 -6 4 4 1 12 -7 17 -13 9 -13 10 0 6 8 -2 35 2 60 9 24 7
46 11 49 9 2 -3 -1 -5 -7 -5 -7 0 -12 -5 -12 -12 0 -6 10 -2 23 9 30 28 57 36
74 22 7 -7 17 -9 20 -5 4 4 1 12 -7 17 -13 9 -12 10 2 5 10 -3 20 -1 23 4 4 7
13 6 25 0 26 -14 35 -13 21 3 -9 11 -4 14 24 15 19 1 35 -3 35 -9 0 -6 5 -7
11 -3 8 4 7 9 -2 15 -16 9 -9 18 18 23 27 6 175 47 360 101 28 9 55 15 60 14
11 -3 28 1 348 93 154 44 285 81 290 82 73 19 105 30 105 37 0 5 7 6 15 3 8
-4 15 -2 15 4 0 5 17 13 38 17 20 5 42 10 47 12 6 1 39 10 75 19 36 8 72 19
81 24 8 4 42 13 74 20 32 7 66 16 74 21 9 4 50 17 91 29 41 12 97 28 124 36
27 9 66 17 85 20 20 2 65 13 100 24 35 10 67 17 71 15 3 -2 50 9 103 24 53 16
97 26 97 23 0 -3 5 -1 12 6 7 7 22 12 34 12 13 0 29 6 36 14 8 8 41 19 74 26
32 6 66 14 74 17 8 4 22 7 30 8 9 1 47 11 85 23 194 57 386 109 463 125 28 6
52 14 52 18 0 4 8 5 19 2 10 -3 22 0 25 6 4 6 17 11 28 11 12 0 85 18 162 41
152 44 191 55 366 100 157 40 432 116 505 139 33 11 80 24 105 30 55 13 139
34 200 50 24 6 49 15 55 19 9 7 50 20 178 56 28 8 89 25 134 39 45 13 84 22
87 19 2 -3 11 -1 18 3 14 10 97 30 173 44 59 10 128 28 245 62 47 14 108 31
135 38 28 7 56 18 63 23 7 5 36 16 65 23 84 21 307 80 372 99 33 9 74 21 90
25 17 4 71 20 120 34 109 31 136 39 245 65 84 21 152 38 345 88 55 15 136 34
180 44 90 20 151 36 358 94 30 8 63 15 75 15 12 0 22 4 22 9 0 5 6 8 13 8 6
-1 39 4 72 12 161 35 193 41 228 46 20 3 37 10 37 15 0 5 8 8 18 8 9 0 35 4
57 10 22 6 65 17 95 25 30 8 89 20 130 27 41 7 89 16 105 20 17 4 46 8 65 9
36 1 144 23 235 47 28 7 78 16 113 20 34 3 62 11 62 15 0 5 12 9 28 9 15 0 51
7 80 14 29 8 53 14 55 15 1 0 9 2 17 5 8 2 47 9 85 15 39 5 98 15 131 20 34 6
99 15 145 21 46 5 120 14 164 20 238 33 317 42 390 46 44 3 87 7 95 10 8 3 47
8 85 10 39 3 117 9 175 15 239 24 653 53 730 51 l35 -1 -44 20 c-24 11 -46 17
-49 14 -3 -3 -10 -1 -16 4 -13 10 -381 131 -1096 361 -157 50 -303 98 -325
105 -22 8 -218 71 -435 140 -217 70 -519 167 -670 215 -151 49 -714 229 -1250
400 -536 171 -993 317 -1015 325 -22 7 -134 43 -250 80 -115 37 -284 91 -375
120 -91 29 -253 81 -360 115 -107 34 -249 79 -315 100 -195 63 -1031 328
-1835 581 -278 88 -581 184 -675 214 -93 30 -458 144 -810 255 -352 111 -725
229 -830 262 -263 83 -676 212 -1020 320 -159 49 -490 153 -735 230 -814 255
-1712 535 -2495 778 -269 83 -566 176 -660 205 -158 50 -1552 479 -2070 637
-126 38 -318 97 -425 130 -107 32 -238 72 -290 88 -52 16 -176 53 -275 84
-1046 320 -3014 903 -3822 1133 -255 72 -272 79 -278 103 -7 28 -248 724 -270
780 -8 19 -33 89 -55 155 -23 66 -80 226 -127 355 -47 129 -100 278 -118 330
-32 92 -126 352 -165 455 -10 28 -44 120 -75 205 -111 306 -521 1409 -585
1575 -36 93 -203 531 -290 760 -129 339 -355 916 -632 1609 -120 302 -252 633
-292 735 -55 138 -78 186 -90 185 -9 -1 -33 -4 -54 -8 -20 -3 -31 -3 -24 0 14
6 17 44 3 44 -5 0 -14 22 -21 50 -7 28 -16 50 -21 50 -4 0 -11 16 -15 35 -3
19 -10 38 -15 40 -4 3 -6 12 -2 20 3 8 1 15 -5 15 -6 0 -14 15 -17 33 -4 17
-11 34 -14 37 -9 7 -81 198 -81 215 0 8 -5 26 -12 42 -6 15 -11 31 -10 36 1 4
-2 7 -8 7 -5 0 -10 8 -10 18 0 9 -6 29 -14 44 -8 14 -19 43 -26 65 -7 21 -16
43 -20 48 -3 6 -19 46 -35 90 -15 44 -33 94 -40 110 -7 17 -27 67 -44 112 -17
46 -42 107 -56 137 -28 60 -136 342 -163 421 -9 28 -20 52 -24 53 -4 2 -8 11
-8 20 0 10 -7 30 -15 46 -8 16 -22 53 -31 82 -8 30 -33 98 -55 151 -21 54 -39
105 -39 114 0 8 -4 19 -10 25 -9 9 -31 65 -115 294 -9 25 -22 59 -29 75 -8 17
-28 73 -46 125 -19 52 -37 100 -40 105 -4 6 -13 28 -20 50 -7 22 -16 45 -20
50 -12 17 -39 105 -32 105 4 0 2 4 -4 8 -6 4 -25 49 -43 100 -31 90 -39 110
-66 177 -7 17 -16 41 -20 55 -3 14 -15 44 -26 67 -10 24 -19 47 -19 52 0 9
-54 160 -71 196 -5 11 -22 56 -38 100 -76 207 -125 340 -167 450 -136 357
-276 733 -351 940 -87 241 -116 318 -148 395 -40 99 -125 331 -130 354 -2 12
-4 23 -4 26 -1 3 -6 -2 -11 -10 -6 -9 -10 -10 -10 -3 0 6 4 14 9 18 6 3 0 28
-13 58 -13 28 -33 84 -46 122 -12 39 -25 75 -29 80 -3 6 -6 12 -6 15 -2 14
-31 91 -51 137 -13 28 -24 56 -24 62 0 5 -20 63 -45 128 -25 65 -48 125 -50
133 -2 8 -20 58 -40 110 -20 52 -47 124 -60 160 -13 36 -29 79 -35 95 -7 17
-14 35 -16 40 -1 6 -50 141 -109 300 -59 160 -124 337 -145 395 -20 58 -83
233 -139 390 -207 578 -345 973 -487 1400 -130 388 -160 482 -276 860 -68 225
-167 586 -207 755 -43 186 -118 597 -136 745 -3 25 -14 110 -25 190 -10 80
-24 192 -30 250 -6 58 -13 121 -15 140 -6 53 -43 513 -49 610 -39 625 -41
1605 -6 2245 25 459 49 761 90 1145 209 1955 682 3587 1313 4535 121 182 218
304 356 447 303 315 588 481 956 559 79 17 136 21 270 22 245 0 385 -26 707
-133 489 -164 908 -255 1383 -302 202 -20 791 -17 990 5 980 109 1827 458
2535 1045 146 121 431 407 534 535 240 300 407 578 530 882 27 66 67 148 88
182 225 358 717 275 1391 -234 242 -183 584 -495 826 -754 263 -281 361 -392
557 -629 783 -947 1485 -2034 2029 -3142 264 -538 453 -994 613 -1473 124
-369 189 -605 276 -990 20 -88 41 -178 46 -200 22 -89 97 -465 124 -620 14
-77 31 -178 40 -225 8 -47 25 -150 36 -230 12 -80 25 -172 30 -205 5 -33 11
-78 14 -100 3 -22 12 -94 20 -160 9 -66 18 -142 21 -170 3 -27 12 -106 20
-175 19 -162 62 -681 70 -835 3 -66 8 -129 10 -140 2 -11 7 -105 10 -210 4
-104 9 -203 10 -220 2 -16 7 -264 11 -550 6 -459 -5 -1205 -21 -1442 -3 -37
-9 -165 -15 -283 -6 -118 -12 -242 -15 -275 -2 -33 -9 -130 -15 -215 -12 -172
-58 -738 -64 -785 -2 -16 -7 -68 -10 -115 -4 -47 -11 -121 -16 -165 -5 -44
-11 -107 -14 -140 -3 -33 -15 -150 -26 -260 -61 -597 -50 -1191 23 -1283 22
-27 44 -32 64 -14 10 9 13 13 6 8 -15 -10 -18 5 -4 20 17 17 74 128 92 179
l18 50 0 -37 c1 -21 5 -38 9 -38 8 0 20 30 103 260 42 116 61 200 139 600 232
1193 569 2860 675 3335 8 39 22 102 29 140 78 389 333 1502 472 2060 75 302
165 629 239 870 50 161 75 287 99 481 26 212 31 702 10 1014 -9 146 -44 561
-54 650 -6 47 -15 128 -20 180 -57 524 -216 1481 -370 2220 -95 459 -86 414
-157 725 -128 562 -319 1355 -369 1530 -8 28 -41 151 -73 275 -33 124 -70 261
-82 305 -12 44 -25 94 -29 110 -4 17 -27 98 -50 180 -23 83 -46 164 -50 180
-8 34 -196 684 -211 730 -13 41 -78 260 -94 315 -44 155 -245 796 -367 1170
-120 367 -328 980 -456 1340 -252 710 -423 1103 -641 1475 -29 50 -62 106 -73
125 -62 107 -213 319 -342 480 -86 108 -336 354 -441 436 -350 271 -705 418
-1124 465 -151 17 -492 6 -656 -20 -476 -77 -839 -197 -1655 -546 -662 -283
-893 -365 -1168 -415 -664 -121 -1673 309 -2952 1259 -898 667 -1923 1618
-2615 2426 -136 158 -447 476 -575 585 -129 110 -129 110 -225 185 -133 104
-189 144 -300 216 -460 300 -892 471 -1379 545 -117 18 -543 26 -651 13z
m11825 -4754 c100 -5 122 -8 210 -20 30 -4 64 -9 75 -11 11 -1 21 -3 23 -4 3
-3 13 -6 57 -14 62 -12 174 -45 240 -72 33 -13 63 -24 68 -24 4 0 29 -11 56
-24 27 -13 61 -26 75 -30 14 -3 26 -11 26 -16 0 -6 6 -10 14 -10 7 0 25 -9 39
-20 14 -11 31 -20 38 -20 7 0 36 -18 65 -40 29 -22 56 -40 59 -40 9 0 202
-148 235 -180 17 -17 34 -30 38 -30 10 0 256 -251 327 -335 33 -38 62 -72 65
-75 3 -3 28 -36 55 -73 28 -37 60 -80 72 -95 13 -15 23 -33 23 -39 0 -7 7 -13
15 -13 8 0 15 -6 15 -14 0 -8 12 -28 26 -45 14 -17 23 -31 19 -31 -4 0 4 -15
19 -34 14 -19 26 -39 26 -43 0 -5 8 -18 18 -29 9 -10 31 -47 47 -81 17 -35 33
-63 38 -63 4 0 7 -6 7 -14 0 -8 4 -16 8 -18 10 -4 62 -111 62 -126 0 -7 4 -12
10 -12 5 0 7 -7 4 -15 -4 -8 -1 -15 5 -15 6 0 10 -3 9 -7 -1 -5 4 -21 10 -36
7 -16 12 -34 12 -42 0 -8 4 -16 9 -19 5 -3 12 -18 16 -33 3 -15 15 -46 26 -70
10 -23 19 -49 19 -57 0 -8 4 -16 9 -18 9 -3 101 -271 101 -295 0 -7 5 -13 11
-13 6 0 9 -7 5 -15 -3 -8 -2 -15 2 -15 4 0 13 -21 20 -47 27 -104 54 -189 67
-215 8 -16 10 -28 5 -28 -6 0 -10 4 -10 9 0 5 -27 28 -61 52 -34 24 -68 51
-78 60 -9 9 -50 43 -93 76 -125 99 -110 84 -189 188 -33 44 -65 82 -70 83 -5
2 -9 10 -9 17 0 8 -6 18 -13 22 -6 4 -25 26 -42 48 -16 22 -35 44 -42 48 -7 4
-13 12 -13 17 0 5 -15 25 -32 45 -18 19 -44 48 -58 65 -14 17 -42 48 -62 68
-21 20 -38 41 -38 45 0 5 -12 21 -27 36 -16 15 -37 40 -48 56 -121 168 -415
452 -610 589 -44 31 -84 60 -90 64 -21 16 -195 122 -201 122 -4 0 -22 11 -40
25 -18 14 -37 25 -42 25 -6 0 -12 3 -14 8 -1 4 -30 21 -63 37 -33 17 -62 33
-65 36 -3 3 -21 11 -40 19 -19 8 -37 17 -40 20 -6 8 -67 33 -75 31 -3 -1 -18
5 -33 13 -42 22 -99 46 -111 46 -6 0 -30 6 -53 14 -115 37 -149 46 -183 51
-21 2 -45 7 -54 9 -9 3 -36 8 -61 11 -24 4 -47 8 -51 11 -3 2 -32 4 -63 5 -31
1 -58 5 -60 8 -2 3 -102 5 -223 4 -191 -1 -243 -4 -263 -14 -3 -1 -30 -4 -60
-6 -101 -5 -148 -11 -159 -18 -11 -6 -99 -22 -168 -30 -18 -2 -41 -8 -50 -13
-10 -5 -47 -15 -83 -21 -36 -7 -72 -15 -80 -18 -8 -3 -22 -7 -30 -8 -98 -16
-144 -26 -149 -33 -3 -5 -44 -17 -91 -26 -73 -15 -198 -51 -250 -73 -8 -3 -21
-5 -29 -4 -8 1 -17 -2 -20 -7 -3 -5 -51 -22 -106 -37 -55 -15 -147 -43 -205
-61 -58 -19 -120 -37 -137 -40 -18 -3 -33 -10 -33 -14 0 -4 -21 -10 -46 -14
-26 -3 -52 -10 -58 -15 -6 -5 -56 -21 -111 -36 -55 -15 -120 -34 -144 -42 -24
-7 -64 -16 -88 -20 -23 -3 -43 -9 -43 -14 0 -4 -12 -7 -27 -7 -16 0 -49 -7
-74 -16 -26 -9 -69 -19 -95 -22 -27 -4 -53 -10 -59 -14 -53 -39 -632 -44 -812
-6 -15 3 -46 9 -68 12 -22 3 -43 8 -48 11 -4 2 -20 7 -35 9 -42 8 -105 24
-127 33 -11 5 -45 14 -76 21 -34 8 -68 24 -88 40 -17 16 -65 40 -106 55 -41
15 -75 30 -75 32 0 3 18 3 39 1 32 -3 38 -1 28 10 -9 11 -5 13 24 8 34 -6 145
-20 289 -36 74 -8 536 -5 595 4 17 3 73 11 127 19 53 8 101 17 106 21 5 3 31
7 56 8 26 0 49 5 52 10 3 4 18 8 33 8 15 0 31 3 35 7 3 4 25 8 47 10 23 2 51
9 63 15 19 12 46 17 89 19 9 0 17 4 17 9 0 5 15 11 33 15 45 9 129 34 148 45
9 5 33 12 53 15 20 4 36 11 36 16 0 5 3 8 8 7 9 -2 121 32 142 43 8 4 46 18
85 30 38 12 94 33 122 46 29 12 54 23 56 22 3 -1 49 16 127 47 36 15 81 32
100 39 200 76 341 130 367 141 17 8 36 14 42 14 6 0 11 4 11 9 0 5 17 12 38
16 20 4 61 18 90 31 29 13 57 24 63 24 6 0 25 6 42 14 18 8 66 25 107 37 41
13 77 26 80 29 3 4 23 12 45 18 56 15 280 79 339 97 26 8 61 15 77 15 16 0 29
5 29 10 0 6 12 10 28 10 15 0 59 7 97 16 39 9 86 18 105 20 19 3 67 9 105 15
39 5 129 12 200 15 72 3 135 6 140 8 6 1 17 1 25 0 8 -2 58 -6 110 -9z
m-22368 -5190 c98 0 178 -2 178 -5 0 -10 -21 -86 -29 -105 -5 -11 -14 -47 -21
-80 -7 -33 -17 -66 -22 -72 -6 -7 -8 -13 -5 -13 4 0 0 -17 -7 -37 -7 -21 -11
-44 -9 -50 3 -7 0 -13 -6 -13 -5 0 -15 -34 -22 -75 -7 -41 -17 -75 -21 -75 -4
0 -8 -7 -8 -15 0 -8 -11 -50 -25 -92 -38 -116 -64 -215 -70 -262 -1 -9 -4 -23
-8 -31 -3 -8 -17 -58 -31 -110 -25 -91 -53 -191 -62 -218 -2 -7 -3 -13 -3 -15
0 -1 -4 -14 -10 -30 -6 -15 -13 -38 -15 -50 -3 -12 -12 -40 -20 -62 -8 -22
-15 -48 -16 -57 0 -9 -6 -23 -12 -30 -16 -17 -33 -47 -94 -168 -26 -52 -51
-97 -55 -100 -4 -3 -29 -46 -55 -95 -39 -74 -101 -178 -154 -255 -122 -177
-129 -185 -176 -210 -29 -15 -54 -36 -62 -52 -7 -16 -17 -28 -23 -28 -5 0 -9
-5 -9 -11 0 -6 -11 -25 -25 -43 -14 -18 -25 -36 -25 -40 0 -4 -6 -14 -12 -22
-29 -34 -34 -41 -63 -84 -16 -25 -33 -47 -36 -50 -3 -3 -8 -12 -11 -20 -4 -8
-38 -58 -77 -110 -71 -96 -79 -110 -61 -110 6 0 10 4 10 8 0 9 50 35 56 29 3
-3 -83 -134 -96 -147 -3 -3 -28 -39 -55 -80 -28 -41 -56 -81 -62 -88 -7 -7
-13 -17 -13 -22 0 -5 -6 -15 -13 -22 -6 -7 -21 -30 -32 -50 -11 -21 -23 -38
-27 -38 -5 0 -8 -7 -8 -15 0 -8 -4 -15 -8 -15 -5 0 -14 -10 -21 -22 -6 -13
-19 -35 -29 -50 -9 -14 -32 -52 -50 -83 -19 -32 -38 -63 -43 -69 -15 -18 -59
-86 -59 -92 0 -3 -5 -10 -10 -17 -6 -7 -31 -43 -55 -82 -24 -38 -47 -74 -52
-80 -4 -5 -15 -23 -23 -40 -8 -16 -17 -32 -20 -35 -16 -15 -100 -147 -100
-157 0 -6 -3 -13 -7 -15 -9 -3 -53 -64 -53 -72 0 -3 -18 -32 -40 -63 -22 -32
-40 -64 -40 -70 0 -7 -4 -13 -8 -13 -5 0 -14 -11 -20 -25 -7 -14 -17 -31 -23
-38 -5 -7 -33 -48 -62 -91 -69 -105 -70 -107 -87 -126 -21 -24 -40 -47 -101
-126 -29 -38 -61 -77 -71 -87 -10 -10 -18 -21 -18 -25 0 -4 -18 -27 -40 -52
-45 -51 -37 -42 -115 -140 -33 -41 -91 -104 -129 -140 -38 -36 -103 -96 -144
-135 -94 -89 -154 -151 -307 -321 -38 -43 -137 -146 -220 -229 -82 -83 -163
-168 -180 -189 -16 -22 -40 -49 -52 -62 -13 -13 -23 -28 -23 -34 0 -5 -4 -10
-9 -10 -5 0 -25 -21 -44 -47 -20 -27 -57 -69 -84 -95 -393 -386 -703 -700
-703 -712 0 -2 -29 -34 -65 -70 -36 -36 -65 -70 -65 -75 0 -6 -6 -14 -12 -18
-12 -7 -41 -39 -135 -146 -18 -20 -33 -39 -33 -43 0 -4 -10 -17 -22 -29 -13
-12 -33 -35 -45 -51 -12 -16 -35 -44 -52 -63 -17 -19 -31 -37 -31 -41 0 -3
-13 -19 -28 -36 -29 -30 -156 -189 -207 -259 -16 -22 -35 -44 -42 -48 -7 -4
-13 -14 -13 -22 0 -7 -3 -15 -7 -17 -5 -1 -26 -29 -47 -60 -22 -32 -42 -58
-46 -58 -3 0 -13 -13 -23 -29 -9 -16 -32 -47 -50 -69 -17 -23 -43 -57 -57 -77
-14 -19 -32 -44 -40 -54 -8 -11 -22 -29 -30 -41 -8 -12 -61 -85 -117 -161 -57
-76 -100 -139 -96 -139 3 0 -6 -9 -21 -21 -14 -11 -26 -27 -26 -35 0 -8 -4
-14 -10 -14 -5 0 -10 -7 -10 -15 0 -9 -7 -18 -15 -21 -8 -4 -15 -11 -15 -16 0
-5 -8 -20 -17 -33 -10 -12 -25 -33 -33 -45 -15 -22 -92 -125 -108 -145 -5 -6
-11 -16 -13 -21 -8 -21 -175 -248 -231 -315 -32 -37 -58 -72 -58 -76 0 -4 -14
-15 -30 -23 -109 -56 -142 -72 -145 -68 -2 1 5 27 15 56 10 28 17 52 14 52 -2
0 3 16 11 36 25 60 21 67 -25 44 -21 -11 -46 -20 -54 -20 -8 0 -16 -4 -18 -8
-1 -5 -30 -16 -63 -24 -113 -30 -150 -41 -165 -46 -8 -3 -19 -6 -23 -6 -5 -1
-20 -44 -34 -96 -13 -52 -27 -98 -31 -102 -4 -4 -48 -18 -97 -29 -50 -12 -99
-26 -110 -30 -34 -13 -135 -26 -135 -17 0 4 4 8 9 8 5 0 13 15 16 33 4 17 11
37 15 42 4 6 13 33 20 60 6 28 18 64 26 82 8 17 14 35 14 41 0 13 24 91 67
219 19 56 36 114 39 130 3 15 9 32 13 38 5 5 11 24 15 40 7 30 121 391 136
430 4 11 20 61 35 110 15 50 33 109 41 133 8 23 14 47 14 53 0 6 6 25 14 42 7
18 32 93 55 167 23 74 46 144 50 155 5 11 30 88 56 170 26 83 51 159 55 170 4
11 20 58 34 105 15 47 31 94 36 105 10 22 41 119 69 210 10 33 28 84 40 113
11 28 30 76 42 105 11 28 29 70 40 93 10 22 19 46 19 52 0 7 5 12 10 12 6 0
10 6 10 13 0 13 77 205 89 222 4 6 14 30 21 55 7 25 16 50 20 55 3 6 19 42 34
80 16 39 37 90 48 115 11 25 24 54 28 65 5 11 18 41 28 66 11 26 23 61 27 78
4 17 10 31 15 31 4 0 10 14 14 32 3 17 15 49 25 72 32 70 51 114 51 121 0 4 7
21 15 38 8 18 24 56 35 86 12 30 30 74 41 97 10 24 19 46 19 49 0 19 298 622
311 630 4 3 10 19 14 35 4 17 10 30 14 30 4 0 26 39 50 88 23 48 62 123 86
167 25 44 48 87 52 95 6 14 23 44 108 195 16 28 37 66 47 85 10 19 28 49 38
65 11 17 26 42 32 58 7 15 15 27 19 27 4 0 12 15 20 33 7 17 16 34 19 37 4 3
26 39 51 80 24 41 47 80 51 85 25 32 81 123 89 143 5 12 13 22 19 22 5 0 10 5
10 12 0 6 18 35 40 64 22 29 40 56 40 59 0 8 44 69 53 73 4 2 7 8 7 13 0 5 28
47 63 93 34 46 69 94 77 106 29 44 94 125 124 156 17 17 65 68 106 113 147
160 379 388 500 491 14 12 37 32 52 46 15 13 32 24 38 24 5 0 10 4 10 8 0 4
12 15 28 24 15 10 47 36 73 60 25 24 69 63 99 88 61 51 136 116 230 200 36 32
76 68 90 80 14 12 61 54 104 93 44 40 95 87 115 104 20 18 45 41 56 51 11 10
40 34 65 53 25 18 47 37 48 41 2 5 10 8 17 8 7 0 15 4 17 8 2 5 37 33 78 63
41 29 77 57 78 61 2 5 8 8 13 8 6 0 15 4 22 10 57 47 76 60 86 60 6 0 11 4 11
10 0 5 14 17 32 26 18 9 38 22 45 29 7 7 29 23 50 36 21 13 52 36 68 51 17 15
36 28 43 28 6 0 12 5 12 10 0 6 8 14 18 17 9 4 35 21 56 40 22 18 46 33 53 33
7 0 13 3 13 8 0 10 136 112 150 112 5 0 10 4 10 8 0 4 12 13 28 19 15 7 36 18
47 25 11 7 38 24 60 38 22 14 45 27 50 30 14 7 118 70 163 98 21 13 45 25 55
29 9 3 17 9 17 13 0 4 8 10 18 13 9 4 35 17 57 31 41 26 91 55 135 78 50 26
63 46 51 81 -13 36 -22 29 119 100 58 28 107 55 110 58 6 7 145 86 230 132 30
16 111 55 180 88 l125 59 70 -7 c39 -4 150 -8 247 -8z m3804 -25135 c16 -6 96
-20 178 -31 392 -50 624 -112 871 -232 250 -122 436 -255 625 -446 179 -181
308 -367 440 -636 119 -241 185 -452 215 -690 4 -27 15 -77 24 -110 13 -42 20
-111 25 -225 3 -91 8 -214 11 -275 5 -118 12 -290 20 -530 3 -82 8 -195 10
-250 29 -581 38 -949 39 -1490 1 -335 0 -666 -2 -735 -1 -69 0 -136 2 -150 19
-105 73 -763 91 -1105 24 -471 27 -1390 4 -1685 -67 -870 -627 -1614 -1439
-1912 -251 -92 -412 -120 -835 -143 -154 -8 -314 -17 -355 -20 -93 -5 -199
-11 -545 -30 -148 -8 -308 -17 -355 -20 -253 -15 -476 -27 -845 -45 -225 -11
-453 -22 -505 -25 -52 -2 -149 -7 -215 -10 -66 -3 -158 -8 -205 -10 -47 -3
-141 -7 -210 -10 -69 -3 -163 -8 -210 -10 -131 -8 -460 -23 -835 -40 -187 -8
-389 -17 -450 -20 -60 -2 -168 -7 -240 -10 -71 -3 -168 -8 -215 -10 -47 -3
-141 -7 -210 -10 -142 -6 -284 -12 -445 -20 -60 -3 -218 -10 -350 -15 -279
-11 -442 -19 -575 -25 -103 -5 -264 -12 -485 -20 -77 -3 -178 -8 -225 -10 -47
-3 -146 -7 -220 -10 -162 -6 -295 -12 -575 -25 -305 -14 -447 -15 -470 -3 -27
14 -73 21 -180 29 -434 28 -810 150 -1140 369 -526 349 -869 874 -980 1500
-19 108 -41 188 -65 235 -26 52 -32 115 -45 490 -8 234 -15 404 -20 515 -3 55
-7 174 -10 265 -3 91 -8 201 -10 245 -2 44 -7 150 -10 235 -3 85 -8 187 -10
225 -2 39 -7 151 -10 250 -3 99 -8 198 -10 220 -2 22 -7 139 -10 260 -3 121
-8 247 -10 280 -2 33 -7 168 -10 300 -4 132 -8 247 -10 255 -2 8 -7 204 -11
435 -3 231 -8 427 -9 435 -2 8 -6 314 -10 680 -7 640 -8 666 -27 683 -31 30
-39 64 -49 206 -7 111 -6 141 6 179 9 24 22 124 30 221 18 211 37 330 76 470
81 287 206 541 383 776 85 114 313 339 435 429 292 217 622 357 988 421 90 15
192 46 228 69 14 9 88 16 240 20 121 4 231 9 245 11 14 2 120 6 235 10 116 4
217 8 225 10 8 1 110 6 225 9 116 4 235 9 265 11 30 2 136 7 235 10 99 3 223
8 275 10 52 3 212 10 355 15 143 5 303 12 355 15 52 2 169 7 260 10 91 3 194
8 230 10 36 2 148 7 250 10 102 3 205 8 230 10 25 2 135 7 245 10 110 3 225 8
255 10 30 2 145 7 255 10 110 3 216 8 235 10 19 2 130 7 245 10 116 3 221 8
235 10 14 2 122 7 240 10 118 3 231 8 250 10 19 2 123 7 230 10 107 3 215 8
240 10 25 2 142 7 260 10 118 3 231 8 250 10 19 2 132 7 250 10 118 3 235 8
260 10 25 2 124 7 220 10 96 3 218 7 270 10 52 3 160 7 240 10 265 10 404 15
490 20 47 2 177 7 290 11 113 3 206 7 207 8 9 7 136 4 159 -4z"/>
<path d="M43850 16796 c-11 -10 -56 -16 -155 -21 -77 -4 -158 -8 -179 -10 -22
-2 -107 -7 -190 -10 -242 -9 -396 -15 -476 -20 -41 -2 -183 -7 -315 -10 -132
-3 -269 -8 -305 -10 -36 -2 -144 -7 -240 -10 -96 -3 -224 -8 -285 -10 -60 -3
-184 -7 -275 -10 -91 -3 -268 -10 -395 -15 -126 -5 -313 -12 -415 -15 -102 -3
-248 -7 -325 -10 -77 -2 -223 -7 -325 -10 -102 -3 -239 -7 -305 -10 -66 -3
-203 -7 -305 -10 -102 -3 -232 -7 -290 -10 -58 -2 -188 -7 -290 -10 -102 -4
-234 -8 -295 -10 -60 -2 -189 -7 -285 -10 -475 -14 -805 -25 -900 -30 -58 -3
-217 -7 -355 -10 -137 -3 -299 -7 -360 -10 -60 -3 -168 -7 -240 -10 -380 -15
-436 -17 -835 -30 -264 -8 -441 -16 -469 -20 -83 -13 -207 -38 -220 -45 -8 -4
-26 -4 -39 1 -26 10 -43 2 -74 -36 -21 -24 -35 -120 -20 -138 14 -16 25 -233
16 -314 -5 -47 -13 -72 -31 -94 -22 -25 -24 -36 -19 -82 3 -28 8 -88 11 -132
3 -44 14 -208 25 -365 11 -157 22 -325 24 -375 7 -110 25 -413 31 -515 10
-164 19 -348 30 -585 3 -60 7 -148 10 -195 3 -47 7 -168 10 -270 3 -102 7
-210 10 -240 8 -109 15 -259 21 -480 3 -124 7 -254 10 -290 4 -73 11 -207 19
-350 3 -52 7 -234 10 -405 6 -408 19 -833 29 -975 8 -96 15 -331 17 -487 1
-120 1 -122 32 -162 17 -23 36 -41 43 -41 6 0 19 -9 30 -21 18 -20 25 -20 209
-15 104 3 231 8 280 11 50 2 173 7 275 9 102 3 248 8 325 10 243 8 651 18 910
22 138 2 333 6 435 8 102 2 356 7 565 11 209 3 463 8 565 11 336 9 432 12 720
18 943 22 1741 35 2170 36 19 0 78 1 130 1 388 4 1050 -2 1050 -9 0 -11 130
-8 130 3 0 6 5 2 11 -8 8 -14 14 -15 30 -6 12 6 52 8 107 4 48 -4 192 -8 320
-10 148 -2 237 -7 245 -14 10 -8 17 -7 26 2 8 8 14 8 19 2 4 -6 52 -12 107
-13 55 -1 161 -4 235 -7 195 -8 366 -6 392 4 13 4 31 7 41 6 9 -2 17 1 17 6 0
6 6 9 13 8 21 -3 77 13 77 22 0 5 8 9 18 9 10 0 23 5 30 12 7 7 12 9 12 5 0
-3 12 6 28 20 15 14 42 32 60 39 17 8 32 19 32 25 0 5 4 7 10 4 5 -3 28 13 51
37 75 79 160 226 181 316 7 28 16 52 20 52 33 0 -44 205 -102 271 -19 22 -51
60 -70 84 -19 24 -38 44 -41 44 -10 1 -83 75 -113 113 -15 21 -32 36 -36 33
-5 -3 -14 11 -21 30 -7 19 -17 35 -21 35 -4 0 -8 9 -8 21 0 11 -4 18 -8 15 -5
-3 -26 47 -46 112 -21 64 -43 131 -51 147 -7 17 -16 46 -19 65 -4 19 -11 55
-17 80 -68 317 -99 698 -99 1215 -1 182 -5 362 -10 400 -5 39 -14 111 -20 160
-6 50 -13 104 -15 120 -6 44 -53 672 -60 800 -3 61 -8 146 -10 190 -8 131 -14
271 -20 415 -8 215 -24 587 -30 680 -2 47 -7 150 -10 230 -4 80 -10 235 -16
344 -5 109 -9 260 -9 335 0 75 -4 153 -9 173 -7 28 -5 40 5 49 35 29 -3 101
-70 133 -42 20 -67 20 -86 2z"/>
</g>
</svg>
