<?xml version="1.0" standalone="no"?>
<!DOCTYPE svg PUBLIC "-//W3C//DTD SVG 20010904//EN"
 "http://www.w3.org/TR/2001/REC-SVG-20010904/DTD/svg10.dtd">
<svg version="1.0" xmlns="http://www.w3.org/2000/svg"
 width="800.000000pt" height="1000.000000pt" viewBox="0 0 800.000000 1000.000000"
 preserveAspectRatio="xMidYMid meet">
<metadata>
Created by potrace 1.16, written by Peter Selinger 2001-2019
</metadata>
<g transform="translate(0.000000,1000.000000) scale(0.100000,-0.100000)"
fill="#000000" stroke="none">
<path d="M2100 9986 c-477 -72 -869 -253 -1167 -539 -292 -280 -559 -721 -757
-1254 -89 -240 -180 -560 -174 -614 3 -26 11 -18 78 83 95 142 284 397 412
556 328 407 755 852 927 968 264 178 662 278 1030 259 74 -4 140 -9 148 -12 8
-3 -18 -23 -63 -49 -90 -51 -156 -100 -256 -189 -40 -36 -79 -65 -86 -65 -46
0 -201 -48 -277 -86 -229 -112 -555 -416 -642 -600 -37 -78 -68 -210 -79 -337
-6 -80 -9 -86 -85 -214 -100 -168 -189 -342 -228 -443 -24 -61 -31 -95 -31
-147 0 -75 26 -195 64 -295 23 -63 24 -70 14 -179 -10 -110 -5 -447 8 -616 l7
-82 -54 16 c-30 9 -59 17 -65 19 -8 2 -10 23 -7 68 5 57 2 72 -21 119 -31 65
-119 150 -182 178 -151 67 -381 24 -493 -91 -75 -77 -130 -233 -116 -325 7
-49 62 -119 120 -155 32 -20 35 -24 29 -60 -8 -50 20 -109 58 -124 23 -8 28
-15 23 -31 -3 -11 -10 -47 -16 -80 -39 -232 -38 -212 -22 -430 6 -77 18 -159
27 -183 21 -58 70 -128 104 -148 49 -28 70 -86 75 -204 l4 -105 -37 -45 c-21
-25 -46 -63 -57 -85 -39 -79 -99 -285 -123 -428 -17 -96 -10 -104 163 -187
179 -86 213 -98 235 -84 9 6 46 63 82 128 69 121 125 192 134 165 2 -8 46
-239 96 -514 194 -1065 431 -2329 439 -2344 13 -24 101 -105 497 -460 l362
-323 -55 -76 c-92 -128 -104 -168 -74 -237 26 -59 61 -80 130 -79 71 1 120 26
200 100 58 53 63 56 80 40 21 -19 67 -21 77 -4 5 7 11 37 15 66 9 62 39 102
77 102 15 0 36 13 56 35 18 19 37 35 43 35 17 0 145 94 216 160 l68 63 22 -20
c31 -28 61 -43 90 -43 30 0 132 65 196 125 l48 45 15 -22 c8 -13 19 -34 23
-48 14 -49 76 -158 105 -185 46 -44 56 -31 64 86 4 56 10 115 13 131 l6 29 19
-31 c27 -44 51 -36 61 20 15 89 28 135 58 202 20 46 29 81 27 106 -3 33 1 40
33 64 20 14 45 39 56 55 29 40 84 186 133 348 l42 140 67 70 c37 39 80 86 96
107 l30 36 125 7 c139 8 209 -2 299 -41 74 -33 168 -102 245 -180 57 -57 66
-72 77 -122 13 -62 54 -112 94 -112 20 0 23 -7 29 -52 16 -122 68 -422 86
-493 39 -152 306 -546 517 -764 74 -75 84 -82 115 -79 33 3 33 4 55 92 36 142
53 279 60 466 7 206 -7 383 -45 574 -27 132 -27 133 -7 148 18 14 20 27 19
139 0 196 -57 400 -134 483 -36 39 -39 46 -50 141 -19 167 -59 428 -101 659
-36 199 -40 239 -44 425 -4 220 -17 305 -57 371 -14 22 -26 68 -33 124 l-12
88 36 15 c224 93 491 340 583 539 l33 71 102 52 c228 116 440 259 532 357 55
58 118 165 167 283 28 67 29 61 9 -42 -36 -188 -91 -359 -157 -492 -50 -99
-84 -149 -165 -244 -58 -69 -72 -91 -57 -91 13 0 224 126 294 176 144 101 257
210 295 285 58 110 189 562 250 858 54 259 65 398 44 541 l-11 75 51 137 c28
75 67 190 88 255 33 106 37 129 37 228 0 82 -6 131 -22 190 -11 43 -20 81 -18
83 2 1 15 -16 29 -40 156 -269 240 -593 254 -985 3 -95 9 -173 13 -173 11 0
80 231 109 364 25 115 26 135 26 406 0 272 -2 291 -28 412 -40 189 -87 307
-284 713 -99 204 -215 447 -257 540 -126 275 -171 364 -240 473 -166 261 -342
455 -523 574 -56 37 -210 92 -291 104 -33 5 -60 21 -115 67 -347 290 -699 480
-917 494 -92 6 -205 -14 -367 -65 l-118 -37 -60 32 c-77 42 -210 90 -298 109
-177 37 -337 -3 -675 -167 l-162 -80 -60 41 c-83 56 -158 90 -201 90 -43 0
-153 -53 -224 -109 l-50 -39 -91 88 c-110 106 -180 154 -259 176 -79 23 -545
29 -675 10z m2374 -61 c88 -12 326 -96 326 -116 0 -4 -21 -10 -47 -14 -174
-22 -410 -91 -572 -166 -101 -47 -138 -49 -176 -12 -25 26 -105 151 -105 166
0 20 312 132 406 146 58 8 71 8 168 -4z m1057 -95 c106 -39 266 -124 409 -217
130 -86 292 -204 286 -210 -2 -2 -66 3 -142 11 -77 9 -245 21 -374 27 -233 11
-235 12 -270 39 -91 70 -232 138 -364 176 -69 19 -70 17 46 85 109 64 244 117
300 118 15 1 64 -12 109 -29z m-2055 -55 c81 -41 214 -147 312 -250 l92 -96
-16 -31 c-9 -17 -44 -60 -78 -95 -53 -54 -67 -63 -97 -63 -45 0 -51 6 -140
125 -86 117 -198 233 -287 298 l-63 46 42 27 c111 69 158 77 235 39z m-631
-20 c44 -8 115 -27 157 -41 77 -25 79 -27 159 -122 120 -144 253 -349 332
-510 38 -79 67 -145 65 -147 -2 -2 -26 23 -53 57 -105 127 -285 270 -441 350
-170 87 -321 129 -534 148 -369 32 -681 -22 -986 -170 -164 -80 -255 -151
-479 -375 -161 -160 -250 -257 -489 -530 l-26 -30 21 55 c70 185 289 552 438
733 126 156 181 202 314 267 247 121 787 275 1135 325 113 17 271 13 387 -10z
m2083 -296 c99 -48 265 -254 330 -410 98 -237 137 -527 97 -734 -29 -151 -147
-460 -271 -708 -193 -384 -355 -607 -523 -718 -98 -65 -377 -202 -556 -272
-176 -69 -427 -159 -431 -155 -1 2 56 46 128 98 271 196 549 447 714 645 126
150 245 394 314 643 17 61 53 152 82 210 l53 103 3 147 c8 321 -49 717 -118
830 -40 65 -139 83 -325 58 -66 -9 -147 -22 -180 -30 -33 -8 -61 -13 -63 -11
-2 1 46 33 105 71 203 127 480 252 562 254 19 0 55 -10 79 -21z m942 -70 c309
-21 597 -76 715 -137 158 -80 352 -282 520 -537 94 -144 131 -212 203 -375 84
-190 297 -640 409 -864 178 -356 243 -636 230 -991 -5 -143 -30 -344 -47 -374
-4 -8 -10 123 -13 290 -7 402 -31 556 -123 790 -48 123 -175 374 -264 521 -64
107 -72 125 -90 223 -50 255 -142 465 -259 588 -149 157 -483 308 -871 395
-194 44 -230 48 -230 28 0 -9 6 -18 13 -20 6 -2 81 -20 164 -40 430 -104 762
-256 902 -413 59 -66 138 -216 181 -342 30 -89 80 -301 80 -339 0 -9 -20 19
-43 63 -63 119 -94 164 -157 227 -140 139 -370 238 -555 238 -48 0 -56 -3 -53
-17 3 -14 18 -19 68 -25 412 -43 684 -324 765 -792 8 -49 15 -103 14 -120 0
-27 -6 -20 -40 51 -66 137 -180 216 -385 268 -109 28 -164 32 -164 12 0 -9 38
-23 107 -40 130 -32 256 -91 318 -148 52 -48 88 -118 163 -319 50 -134 112
-339 112 -369 0 -9 -22 25 -49 75 -26 50 -80 138 -119 195 -122 179 -144 196
-125 102 15 -81 9 -420 -9 -473 l-15 -45 -23 50 c-84 185 -205 436 -226 469
-19 28 -29 35 -37 27 -8 -8 13 -60 76 -188 198 -410 344 -819 378 -1059 13
-94 0 -225 -40 -421 -29 -139 -98 -418 -124 -505 -15 -48 -77 -140 -142 -213
-42 -46 -42 -51 8 120 75 255 102 533 73 730 -30 202 -134 562 -256 887 -32
84 -60 185 -84 305 -44 215 -144 608 -221 868 -31 104 -58 191 -60 193 -9 9
-34 -8 -30 -20 18 -52 123 -440 164 -603 125 -503 168 -781 150 -982 -19 -206
-95 -535 -203 -880 -62 -199 -61 -197 -257 -388 -144 -140 -217 -200 -205
-170 133 325 222 693 246 1020 19 250 -15 664 -90 1115 -10 63 -28 192 -40
285 -44 356 -126 662 -167 621 -3 -3 8 -52 25 -108 97 -320 137 -750 129
-1383 -5 -415 -8 -449 -73 -705 -19 -74 -55 -199 -80 -277 -43 -134 -49 -145
-108 -215 -75 -86 -258 -240 -270 -227 -2 2 14 49 35 104 139 354 240 755 269
1065 8 83 19 141 32 172 19 43 18 93 -1 72 -5 -5 -91 -169 -191 -364 -267
-518 -461 -861 -529 -933 -36 -39 -105 -77 -241 -133 -123 -50 -280 -105 -280
-99 0 3 19 35 41 72 23 38 75 134 116 215 52 104 85 156 113 182 119 107 271
299 330 416 56 110 96 285 120 530 13 134 31 586 24 605 -8 21 -34 19 -34 -2
0 -10 -5 -81 -10 -158 -8 -125 -13 -152 -47 -245 l-38 -105 -6 395 c-9 535
-32 797 -100 1111 l-21 95 36 112 c20 61 43 153 52 204 39 222 -18 563 -131
787 l-35 70 43 3 c128 9 294 -21 412 -76 57 -26 80 -44 120 -94 28 -34 53 -62
58 -62 18 0 3 31 -44 85 -28 33 -73 93 -101 134 -27 40 -81 106 -119 146 -38
40 -69 75 -69 79 0 7 48 4 330 -15z m-2835 -79 c139 -69 246 -146 363 -262
l83 -82 -92 -92 c-54 -55 -97 -90 -105 -87 -8 3 -14 -2 -14 -11 0 -9 -24 -45
-53 -79 -29 -34 -60 -73 -70 -87 l-17 -24 -55 27 c-70 34 -81 18 -15 -22 28
-17 52 -37 54 -44 14 -54 32 -97 52 -123 l23 -31 -30 -29 c-68 -65 -129 -239
-164 -470 -10 -60 -19 -116 -22 -124 -2 -8 -19 13 -41 53 -40 74 -99 140 -147
165 -135 71 -681 -153 -1085 -446 -132 -96 -331 -292 -400 -396 -168 -252
-257 -567 -268 -956 -3 -125 -8 -183 -13 -160 -21 98 -33 311 -33 575 l0 290
28 80 c68 197 310 556 511 759 227 229 730 528 1006 598 173 43 324 7 422
-102 46 -51 67 -62 67 -35 0 22 -85 110 -134 139 -106 62 -245 73 -392 30
-171 -49 -380 -150 -606 -292 -255 -159 -411 -296 -562 -490 -44 -56 -81 -100
-83 -98 -9 8 19 293 37 389 22 112 64 246 99 315 12 24 52 74 89 111 58 58 86
77 202 134 295 144 681 244 1075 278 126 10 160 20 140 37 -14 12 -647 -3
-733 -18 -40 -6 -77 -10 -83 -8 -14 5 111 108 219 182 160 108 361 196 451
196 71 0 236 -27 341 -56 134 -37 150 -39 150 -21 0 9 -9 18 -19 22 -11 3 -64
54 -118 112 -54 58 -129 133 -168 166 -59 51 -65 59 -40 53 17 -4 84 -33 150
-66z m1419 -284 c92 -38 196 -258 251 -531 26 -128 45 -355 29 -355 -5 0 -18
19 -29 42 -97 203 -394 428 -730 553 -55 20 -102 39 -104 41 -8 7 43 55 105
100 80 57 211 119 304 143 90 24 130 25 174 7z m-453 -686 c81 -16 135 -46
209 -121 137 -136 253 -349 254 -464 1 -181 -170 -474 -379 -648 -53 -44 -60
-47 -66 -31 -4 11 -21 63 -38 116 -61 198 -163 374 -285 493 -112 110 -238
172 -304 151 -26 -9 -87 -68 -142 -137 -24 -30 -40 -45 -37 -34 3 11 11 40 17
65 48 186 137 411 186 470 86 101 396 176 585 140z m-1768 -802 c18 -13 44
-30 58 -38 43 -24 231 -162 262 -192 16 -16 31 -28 34 -28 3 0 26 -16 49 -36
29 -23 44 -43 44 -58 0 -38 12 -86 21 -86 5 0 9 16 9 35 0 19 3 35 7 35 13 0
73 -64 73 -77 0 -7 8 -13 17 -13 10 0 39 -21 65 -47 27 -26 56 -48 66 -49 61
-3 64 -4 58 -19 -3 -8 -1 -15 5 -15 5 0 12 7 15 15 5 12 32 15 158 15 216 0
659 -20 670 -31 6 -6 3 -9 -7 -9 -9 0 -17 -4 -17 -10 0 -5 42 -11 93 -12 85
-3 92 -5 95 -24 2 -16 -23 -43 -113 -118 -203 -169 -375 -288 -611 -422 -74
-42 -133 -78 -131 -80 9 -9 576 177 750 246 60 23 111 39 114 36 8 -8 -22
-151 -49 -236 -52 -165 -195 -411 -355 -610 -143 -179 -426 -451 -618 -596
-43 -32 -73 -60 -67 -62 17 -5 217 53 417 120 402 136 665 275 810 429 91 97
189 249 288 449 l82 164 7 -39 c20 -113 69 -469 82 -603 18 -169 20 -222 9
-222 -25 0 -253 -45 -403 -79 -275 -62 -335 -77 -619 -152 -657 -174 -722
-190 -826 -195 -116 -7 -172 7 -192 46 -7 14 -13 56 -13 93 0 48 -3 66 -11 61
-20 -12 -6 -191 19 -246 31 -72 56 -80 194 -68 62 5 127 10 144 10 l31 0 5
-90 c7 -108 21 -135 80 -151 207 -55 645 -106 837 -97 128 6 169 26 252 121
58 66 130 170 171 246 17 30 58 44 58 19 0 -6 -53 -81 -117 -166 -165 -216
-152 -196 -123 -187 166 50 532 219 619 285 41 32 85 52 190 85 75 25 164 55
198 69 l63 24 15 -51 c8 -28 18 -81 21 -117 6 -61 5 -67 -20 -89 -24 -22 -35
-51 -20 -51 3 0 34 21 67 46 66 49 156 99 164 90 3 -3 -9 -29 -27 -58 -82
-134 -172 -251 -267 -348 -57 -57 -103 -106 -103 -107 0 -2 21 7 48 21 26 13
64 31 85 39 l37 16 -24 -32 c-37 -51 -41 -83 -12 -112 21 -21 35 -25 86 -25
47 0 60 3 60 15 0 11 -11 15 -39 15 -22 0 -52 5 -66 10 -35 13 -27 42 25 93
46 43 59 45 97 13 59 -51 25 -169 -74 -263 l-45 -42 -24 29 c-50 59 -134 61
-230 5 -97 -57 -130 -133 -76 -175 44 -35 111 -24 238 39 181 90 279 209 279
338 0 52 -4 66 -25 88 -14 15 -37 33 -52 39 -27 12 -26 12 65 64 64 37 99 51
114 47 39 -9 91 -71 108 -127 20 -70 19 -104 -6 -140 -12 -16 -20 -31 -18 -33
9 -8 371 211 483 292 32 24 62 43 67 43 27 0 -9 -167 -56 -262 -98 -196 -294
-379 -529 -493 -61 -30 -145 -63 -186 -75 -115 -31 -270 -43 -387 -30 -115 12
-152 21 -254 62 l-76 30 -84 -46 c-200 -108 -540 -181 -954 -206 -265 -16
-549 5 -703 51 -283 86 -648 381 -889 717 -115 161 -143 243 -143 422 0 63 4
121 9 128 4 7 31 24 60 37 64 30 65 43 9 132 l-41 68 -2 230 c-1 252 -14 362
-80 682 -62 308 -68 352 -69 503 -1 139 1 149 33 245 46 137 117 292 213 465
86 154 206 350 215 350 3 0 19 -10 36 -22z m2855 -388 c75 -111 160 -566 147
-790 -14 -257 -49 -524 -82 -640 -61 -214 -300 -703 -401 -820 -27 -33 -43
-41 -102 -54 -128 -30 -126 -33 -65 92 90 182 133 312 206 612 29 121 32 150
32 280 -1 218 -68 614 -113 665 -32 36 -44 92 -30 139 17 60 78 169 183 329
98 150 167 232 189 225 7 -3 23 -20 36 -38z m-4483 -672 c69 -36 165 -139 165
-177 0 -9 -14 -1 -37 21 -66 64 -122 83 -243 82 -58 0 -117 -6 -132 -12 -34
-14 -38 -37 -5 -28 85 26 145 29 213 13 113 -28 209 -114 202 -182 -3 -30 -3
-30 -81 -37 -76 -7 -80 -6 -118 22 -101 72 -236 33 -290 -85 -10 -22 -36 -57
-58 -79 l-39 -38 -29 20 c-15 11 -39 32 -53 46 l-24 27 31 62 c17 34 51 85 77
113 50 56 54 64 31 64 -20 0 -85 -66 -129 -131 l-35 -53 5 40 c24 169 102 264
269 325 76 28 213 22 280 -13z m3925 -118 c0 -17 -89 -212 -156 -340 -79 -152
-173 -294 -249 -377 -125 -138 -416 -292 -799 -422 -82 -28 -151 -51 -155 -51
-3 0 46 30 109 66 248 144 453 299 551 416 69 83 182 256 257 393 110 201 99
188 214 244 57 28 128 57 158 65 69 18 70 18 70 6z m-3261 -268 l42 -83 -23
-19 c-21 -17 -24 -18 -33 -3 -5 9 -20 27 -31 42 -19 22 -24 23 -38 12 -9 -7
-16 -25 -16 -40 0 -49 -14 -54 -48 -16 l-31 36 13 82 c8 45 22 121 32 168 l18
87 36 -92 c21 -50 56 -128 79 -174z m267 -13 c49 -61 120 -131 187 -186 38
-32 34 -43 -17 -43 -40 0 -47 4 -66 35 -27 44 -84 52 -122 19 -34 -31 -44 -11
-71 133 -14 76 -29 156 -32 178 l-7 40 37 -55 c20 -30 61 -85 91 -121z m-618
16 c23 -9 42 -20 42 -24 0 -29 36 -214 58 -300 l27 -106 7 65 c4 36 11 103 15
150 5 47 13 85 18 85 6 0 24 -21 42 -48 104 -155 110 -344 16 -534 l-35 -72
-29 21 c-16 12 -29 29 -29 38 0 25 -66 123 -100 148 -55 41 -107 54 -210 50
-85 -2 -99 0 -126 19 -43 30 -103 42 -160 32 -78 -15 -138 -62 -189 -149 l-27
-45 6 55 c9 84 55 168 134 241 81 74 166 117 266 132 92 15 108 27 35 27 -117
0 -243 -52 -344 -143 -48 -43 -56 -47 -50 -26 26 90 103 186 193 243 70 44
187 78 282 82 113 5 119 24 7 24 -146 0 -290 -49 -389 -132 -46 -37 -47 -38
-38 -12 34 88 145 165 285 194 66 15 244 5 293 -15z m-558 -72 c-40 -46 -68
-107 -76 -167 -4 -26 -11 -49 -15 -52 -13 -8 -47 14 -60 37 -27 52 32 148 120
194 63 33 68 31 31 -12z m903 -174 c11 -76 27 -119 44 -119 13 0 15 8 9 47 -3
26 -15 65 -25 85 -17 36 -17 38 -1 53 16 15 18 14 25 -12 10 -42 24 -53 65
-53 32 0 43 -6 74 -45 21 -25 41 -45 46 -45 5 0 3 20 -4 45 -13 41 -13 45 4
45 22 0 37 -68 52 -248 13 -148 14 -143 -52 -162 -45 -13 -101 3 -141 38 -25
22 -32 38 -37 82 -5 39 -11 55 -22 55 -11 0 -16 -16 -20 -67 -3 -45 -11 -73
-22 -85 -27 -26 -32 -10 -18 63 17 91 9 227 -19 288 -21 49 -26 83 -15 123 6
22 7 21 28 -10 13 -18 26 -53 29 -78z m349 -14 c18 -32 42 -119 52 -193 6 -40
5 -42 -13 -30 -15 9 -23 9 -35 -1 -17 -14 -16 -17 -36 142 -6 48 -14 95 -17
103 -11 29 30 11 49 -21z m-1039 -267 c35 -13 34 -23 -3 -38 -17 -7 -54 -39
-84 -71 -97 -104 -139 -225 -140 -401 -1 -119 -7 -123 -51 -34 -84 172 -20
461 119 533 62 32 97 35 159 11z m327 -69 c40 -22 110 -98 110 -119 0 -5 -15
-4 -32 1 -82 23 -209 3 -298 -49 -61 -35 -137 -107 -175 -167 -34 -52 -77
-161 -90 -230 l-8 -40 -7 30 c-22 90 -1 279 40 372 55 125 121 190 222 218 77
22 183 15 238 -16z m118 -178 c47 -24 72 -64 72 -115 0 -54 -38 -76 -140 -80
-71 -3 -90 -8 -164 -44 -135 -67 -222 -179 -248 -320 -9 -51 -18 -68 -51 -99
l-39 -38 5 140 c6 155 21 223 72 330 55 115 175 215 291 244 59 15 154 7 202
-18z m3581 -78 c-52 -93 -178 -289 -192 -301 -9 -8 -99 -14 -253 -17 -373 -8
-691 -27 -1202 -71 -327 -28 -328 -28 -351 36 -10 29 -9 31 7 25 9 -5 41 -13
71 -18 88 -18 203 4 731 137 272 68 569 141 660 161 160 36 506 102 543 104
16 1 14 -6 -14 -56z m-2889 -10 c53 -59 200 -272 200 -289 -1 -10 -30 -25
-225 -113 -154 -69 -249 -125 -327 -193 -55 -46 -58 -48 -62 -26 -21 109 -29
138 -46 166 -28 45 -77 74 -115 67 -53 -10 -137 -74 -266 -204 -147 -147 -169
-183 -169 -276 0 -77 16 -120 59 -158 44 -39 40 -64 -21 -128 -31 -32 -76 -96
-108 -156 -35 -65 -61 -103 -71 -103 -9 0 -85 34 -168 75 -110 54 -151 79
-151 92 0 36 50 234 84 338 20 58 49 125 65 148 73 104 448 444 678 614 102
76 234 129 448 182 128 31 135 30 195 -36z m-745 -151 c-6 -5 -44 -36 -85 -69
-41 -33 -118 -98 -170 -143 -52 -46 -103 -90 -113 -98 -16 -15 -17 -13 -2 28
38 107 110 187 218 241 68 35 179 64 152 41z m4951 -238 c-7 -22 -28 -74 -46
-117 -29 -71 -34 -76 -56 -71 -13 3 -47 9 -76 13 l-52 6 56 42 c31 23 85 71
120 106 35 36 64 63 66 62 1 -1 -4 -19 -12 -41z m-1646 28 c0 -26 -160 -241
-221 -298 -19 -18 -50 -36 -69 -42 -41 -13 -147 -18 -275 -14 -93 4 -92 5 4
32 95 26 188 151 198 269 l6 61 178 0 c99 0 179 -4 179 -8z m-386 -34 c-30
-169 -130 -268 -272 -268 -76 0 -132 20 -177 64 -47 45 -65 92 -65 167 l0 46
46 7 c26 3 69 6 95 6 l49 0 -20 -20 c-33 -33 -30 -75 6 -107 31 -28 54 -29 88
-2 33 26 36 79 6 109 -11 11 -20 22 -20 25 0 3 61 5 135 5 l135 0 -6 -32z
m-544 -36 c0 -65 25 -144 57 -183 28 -33 113 -79 147 -79 11 0 17 -2 14 -5
-14 -14 -475 56 -534 80 -34 14 -37 23 -50 142 -5 49 -3 64 7 68 14 5 228 21
312 24 l47 1 0 -48z m-1534 -104 c0 -112 4 -143 23 -198 48 -137 179 -321 374
-527 l69 -72 -79 34 c-68 30 -240 85 -264 85 -4 0 -13 -9 -19 -20 -9 -16 -4
-24 27 -52 58 -51 92 -88 139 -152 47 -63 52 -76 29 -76 -29 0 -15 -34 32 -79
26 -24 42 -46 36 -48 -14 -5 -384 362 -458 456 l-59 74 -1 81 c0 73 -4 88 -38
156 -20 41 -55 99 -77 128 -33 43 -42 65 -50 120 -7 49 -6 69 3 75 18 13 295
145 307 146 3 1 6 -59 6 -131z m-620 75 c39 -39 59 -133 29 -133 -25 0 -107
-45 -166 -91 -73 -57 -245 -235 -263 -273 l-15 -31 -15 37 c-19 44 -20 122 -3
160 17 39 168 200 246 262 108 87 152 103 187 69z m5159 -90 c-66 -117 -222
-334 -201 -278 4 10 10 54 13 97 l6 77 71 55 c39 30 86 71 105 90 19 20 37 34
39 31 2 -2 -13 -35 -33 -72z m-4895 -92 c0 -56 -18 -158 -32 -185 -9 -16 -16
-8 -54 60 l-43 79 56 52 c30 29 60 50 64 47 5 -3 9 -27 9 -53z m4366 37 c8 -9
-41 -102 -109 -206 l-61 -92 -16 58 c-19 68 -49 114 -90 139 -17 9 -30 20 -30
23 0 13 97 65 144 76 49 13 150 14 162 2z m-4246 -645 c172 -340 497 -980 722
-1421 225 -442 412 -818 414 -835 3 -18 -38 -351 -91 -741 -52 -390 -95 -714
-95 -720 -1 -24 -24 35 -183 464 -320 864 -977 2607 -1268 3364 l-118 309 46
41 c90 80 211 156 249 156 6 0 152 -278 324 -617z m-555 162 c42 -115 119
-322 170 -460 51 -137 138 -371 193 -520 205 -554 706 -1877 962 -2540 49
-126 102 -265 118 -308 17 -42 25 -74 19 -70 -7 4 -203 178 -436 388 -233 209
-471 422 -530 473 -58 52 -111 104 -118 115 -7 12 -73 348 -148 747 -75 399
-159 838 -186 977 -27 139 -60 312 -73 385 -14 73 -57 297 -95 496 -39 200
-71 380 -71 399 0 28 11 47 52 95 36 42 53 56 58 46 4 -7 42 -107 85 -223z
m4109 -86 c14 -11 26 -26 26 -34 0 -14 -122 -77 -188 -96 -47 -14 -92 -1 -92
25 0 25 70 85 124 105 66 26 97 26 130 0z m-452 -345 c30 -16 31 -17 13 -30
-30 -22 -191 -103 -235 -119 -34 -12 -46 -12 -90 1 -58 17 -63 29 -18 39 49
11 193 72 235 99 46 30 55 31 95 10z m-2430 -181 c9 -10 30 -65 48 -123 54
-176 152 -352 180 -324 9 9 4 25 -19 66 -17 30 -31 57 -31 60 0 3 24 -7 53
-22 57 -31 134 -56 143 -48 3 4 -10 28 -29 55 -32 44 -67 114 -67 133 0 4 44
-8 98 -26 109 -38 195 -44 276 -20 l47 14 -44 -41 c-119 -112 -127 -268 -18
-377 46 -46 132 -89 184 -91 12 -1 33 -4 46 -8 l23 -6 -30 -33 c-16 -17 -34
-32 -39 -32 -5 0 -24 20 -41 44 -17 24 -44 48 -59 54 -35 14 -287 52 -342 52
-58 0 -65 -19 -52 -128 6 -48 11 -93 11 -100 0 -7 -19 8 -43 33 -52 54 -97 61
-139 22 l-25 -24 -7 106 c-10 155 -16 170 -91 237 l-65 56 0 122 c0 66 -5 165
-12 218 -9 74 -9 103 0 122 14 31 23 32 44 9z m2569 -177 c6 -56 21 -45 -171
-119 -124 -47 -252 -87 -363 -112 l-29 -6 20 28 c11 15 29 46 40 69 19 37 26
42 79 54 65 14 285 88 353 118 25 11 50 19 55 18 6 -1 12 -24 16 -50z m-1356
12 c141 -35 268 -92 328 -147 53 -48 87 -149 87 -258 0 -42 -1 -44 -82 -105
-162 -120 -253 -140 -452 -98 -58 13 -108 26 -111 30 -2 3 13 12 33 20 128 45
211 166 199 287 -14 133 -125 228 -292 248 -52 7 -56 9 -35 17 110 41 179 43
325 6z m-390 -82 c-84 -27 -145 -75 -179 -143 -18 -37 -21 -118 -5 -160 13
-35 64 -90 102 -110 32 -16 36 -13 71 52 17 32 17 32 -13 63 -43 42 -44 101
-3 142 84 83 232 43 232 -63 0 -20 -9 -46 -21 -62 l-22 -27 42 -41 c48 -48 57
-46 106 22 27 38 30 51 30 115 0 62 -4 78 -28 114 -16 24 -49 54 -80 72 -58
33 -57 41 2 10 51 -25 109 -94 122 -144 13 -48 5 -104 -20 -154 -82 -160 -345
-197 -480 -69 -68 65 -89 161 -52 242 33 73 146 153 216 154 11 0 2 -6 -20
-13z m1762 -80 c-15 -38 -514 -195 -624 -196 -87 0 -25 53 81 70 91 14 288 79
432 143 l99 43 8 -23 c5 -13 7 -29 4 -37z m-23 -93 c-9 -21 -19 -47 -24 -59
-16 -40 -214 -202 -323 -264 l-58 -32 -47 17 c-51 19 -256 128 -292 155 l-22
17 36 21 c34 20 39 21 66 7 16 -8 43 -15 60 -15 86 0 389 89 543 160 34 16 65
29 70 29 4 1 0 -16 -9 -36z m81 -313 c28 -236 65 -486 96 -654 11 -59 18 -110
16 -113 -3 -2 -47 24 -98 57 -173 114 -345 190 -429 190 -45 0 -50 2 -50 23 0
12 30 63 66 112 121 164 284 463 340 623 l19 54 7 -39 c4 -21 19 -135 33 -253z
m-179 103 c-16 -32 -154 -153 -229 -201 -63 -40 -95 -39 -194 8 -69 32 -292
157 -328 184 -20 14 -19 15 7 21 22 6 49 -7 150 -67 148 -89 238 -130 284
-130 19 0 55 12 81 28 53 30 201 142 222 168 20 24 23 19 7 -11z m-747 -59
l54 -37 -24 -13 c-88 -49 -256 -98 -297 -87 -32 8 -28 15 26 45 27 15 77 50
111 78 35 27 66 50 70 50 3 0 31 -16 60 -36z m-1151 -65 l143 -22 31 -44 c17
-25 45 -51 63 -59 45 -19 52 -33 24 -52 -13 -9 -35 -28 -48 -43 l-23 -27 -72
33 c-39 18 -120 50 -181 71 -60 20 -111 38 -112 38 0 1 -4 31 -8 67 -7 66 -7
67 16 63 13 -2 88 -13 167 -25z m1527 -176 c-26 -106 -92 -206 -188 -286 -41
-35 -55 -41 -106 -45 -46 -3 -67 0 -102 18 -39 20 -238 142 -264 162 -91 70
-220 174 -255 206 l-45 40 45 -5 c35 -5 56 -16 95 -51 108 -97 305 -203 305
-164 0 4 -21 18 -47 31 -64 31 -140 82 -197 132 -53 46 -55 64 -4 26 69 -52
96 -60 176 -53 76 6 293 72 347 105 29 17 29 17 138 -38 99 -50 108 -57 102
-78z m-1426 -794 c36 -16 80 -41 98 -55 49 -37 44 -63 -21 -114 -63 -48 -190
-179 -236 -242 l-32 -43 6 35 c18 103 36 261 36 312 0 45 -7 72 -30 117 l-29
59 72 -20 c40 -11 101 -33 136 -49z m74 -1127 c9 -8 17 -18 17 -22 0 -9 -192
-159 -240 -189 -41 -24 -69 -27 -95 -7 -18 13 -18 14 6 44 15 19 30 29 39 25
44 -16 51 -14 90 25 40 40 49 72 30 102 -6 10 -4 20 6 31 13 14 27 16 72 12
31 -3 65 -12 75 -21z"/>
<path d="M1890 6568 c-24 -40 -45 -133 -60 -263 -6 -55 -13 -115 -15 -133 -7
-59 22 -86 45 -42 6 11 15 18 21 15 15 -10 46 -77 83 -179 33 -91 34 -97 24
-168 -13 -93 -4 -441 15 -528 19 -94 70 -181 150 -261 88 -86 118 -100 156
-72 26 20 27 20 51 2 14 -11 37 -31 53 -46 19 -19 43 -29 80 -34 28 -3 53 -5
55 -4 2 2 -1 20 -7 42 -6 21 -14 77 -18 126 -3 48 -9 87 -13 87 -14 0 -20 -94
-10 -158 6 -35 9 -67 6 -69 -7 -8 -44 7 -61 23 -11 12 -15 40 -15 115 0 97
-11 130 -24 68 -3 -17 -6 -59 -6 -93 l-1 -61 -24 28 c-30 34 -32 74 -9 206 15
87 13 122 -5 92 -17 -27 -65 134 -210 714 -106 421 -152 578 -178 607 -26 29
-61 22 -83 -14z m101 -138 c17 -52 71 -252 120 -445 105 -407 159 -600 201
-708 36 -94 31 -126 -7 -42 -65 144 -236 562 -284 694 -69 191 -95 240 -132
254 -33 13 -33 10 -14 144 16 111 32 187 48 217 9 19 10 19 24 1 7 -11 27 -62
44 -115z m110 -798 l68 -164 -17 -61 c-17 -66 -23 -253 -9 -317 l7 -35 -24 30
c-47 57 -77 124 -92 207 -26 140 -31 590 -6 518 3 -8 36 -89 73 -178z m146
-338 l50 -110 -23 -28 c-13 -15 -24 -38 -24 -52 0 -27 32 -64 56 -64 11 0 14
-9 12 -36 -7 -84 -74 -67 -123 31 -28 56 -30 67 -30 175 0 122 11 218 24 204
5 -5 31 -59 58 -120z"/>
<path d="M3284 5747 c-95 -39 -208 -107 -308 -187 -79 -64 -191 -178 -183
-187 3 -3 44 30 91 72 120 110 243 196 374 262 61 31 112 60 112 65 0 10 7 12
-86 -25z"/>
<path d="M3087 5708 c-48 -29 -124 -80 -168 -112 -91 -68 -269 -242 -269 -264
0 -8 46 30 102 83 110 105 263 223 371 287 59 36 82 58 59 58 -4 0 -47 -24
-95 -52z"/>
<path d="M1970 5021 c0 -5 -3 -17 -6 -25 -4 -12 4 -20 30 -31 49 -21 132 -72
182 -112 23 -19 48 -31 56 -28 8 3 21 -1 28 -10 7 -8 23 -15 36 -15 20 0 24 5
24 30 0 32 -14 40 -27 15 -7 -12 -25 -2 -95 54 -48 38 -116 83 -151 100 -71
34 -77 36 -77 22z"/>
<path d="M2832 4578 c-7 -7 -12 -27 -12 -45 0 -58 22 -64 272 -79 174 -10 222
-16 232 -28 6 -9 45 -21 91 -28 56 -10 80 -18 80 -28 0 -10 49 -25 175 -53 96
-21 233 -58 303 -81 71 -23 130 -39 133 -35 6 11 -199 82 -366 128 -19 5 -28
10 -20 10 18 1 257 -61 317 -83 23 -8 45 -11 48 -6 10 17 -256 94 -505 146
-97 20 -105 23 -50 19 96 -9 295 -51 396 -85 100 -34 94 -33 94 -21 0 20 -230
87 -395 115 -139 24 -331 44 -540 57 -104 6 -201 15 -214 20 -21 8 -23 14 -17
49 6 41 -1 49 -22 28z"/>
<path d="M2935 4404 c-266 -67 -424 -76 -537 -29 -12 5 -18 3 -18 -7 0 -7 19
-20 42 -28 59 -21 88 -85 128 -279 17 -85 40 -178 51 -206 39 -104 123 -170
255 -201 344 -81 560 217 395 544 -37 73 -112 157 -163 183 -40 20 -117 32
-153 23z m128 -48 c18 -7 47 -29 64 -48 l33 -34 -53 -31 c-66 -40 -130 -61
-226 -74 -71 -10 -188 -7 -237 7 -21 5 -64 72 -79 122 -6 21 -4 22 62 22 37 1
115 11 173 24 122 27 217 32 263 12z m-283 -232 c0 -3 -13 -23 -29 -43 -44
-55 -65 -105 -57 -135 8 -32 99 -94 185 -127 83 -32 187 -37 237 -11 39 20
106 84 138 132 l16 24 0 -27 c0 -38 -32 -118 -65 -161 -16 -21 -53 -48 -90
-67 -56 -27 -74 -31 -147 -31 -156 1 -277 62 -327 165 -26 54 -27 99 -1 151
28 57 98 136 121 136 10 0 19 -3 19 -6z"/>
<path d="M1410 5214 c-244 -75 -319 -117 -520 -288 -145 -124 -421 -401 -459
-461 -59 -93 -173 -427 -152 -448 17 -17 24 -3 76 148 68 199 102 263 196 366
85 93 348 340 459 431 123 100 194 135 465 233 88 32 119 55 73 55 -12 -1 -75
-17 -138 -36z"/>
<path d="M3094 3146 c-78 -34 -86 -137 -15 -176 15 -8 22 -5 35 15 15 23 15
27 1 49 -14 22 -14 25 0 40 21 20 39 20 56 0 9 -11 10 -20 2 -32 -12 -20 10
-62 33 -62 35 0 57 86 33 132 -11 21 -66 48 -96 48 -10 -1 -32 -7 -49 -14z"/>
</g>
</svg>
