<?xml version="1.0" standalone="no"?>
<!DOCTYPE svg PUBLIC "-//W3C//DTD SVG 20010904//EN"
 "http://www.w3.org/TR/2001/REC-SVG-20010904/DTD/svg10.dtd">
<svg version="1.0" xmlns="http://www.w3.org/2000/svg"
 width="128.000000pt" height="128.000000pt" viewBox="0 0 128.000000 128.000000"
 preserveAspectRatio="xMidYMid meet">
<metadata>
Created by potrace 1.16, written by Peter Selinger 2001-2019
</metadata>
<g transform="translate(0.000000,128.000000) scale(0.100000,-0.100000)"
fill="#6A7985" stroke="none">
<path d="M7 1233 c-4 -3 -7 -161 -7 -349 0 -329 1 -344 19 -354 12 -6 101 -10
220 -10 114 0 201 -4 201 -9 0 -11 -110 -19 -117 -8 -2 4 -27 7 -55 7 -45 0
-54 -4 -85 -37 -68 -75 -126 -225 -108 -282 8 -28 48 -28 112 0 102 44 226 6
302 -94 36 -48 48 -58 70 -55 33 4 67 67 77 144 l6 55 23 -48 c20 -44 69 -103
84 -103 19 1 39 26 70 90 32 63 43 77 95 109 58 35 62 36 160 36 106 0 126 5
126 33 0 37 -52 126 -107 184 -72 75 -108 93 -164 78 -22 -6 -42 -16 -45 -23
-3 -9 -99 -11 -407 -7 -221 3 -403 7 -405 8 -1 1 -1 129 0 285 l3 282 565 0
565 0 3 -282 2 -283 -24 -6 c-14 -3 -48 -4 -76 -2 -27 1 -50 1 -50 -3 0 -3 15
-19 33 -37 30 -29 39 -32 93 -32 101 0 95 -26 92 370 l-3 345 -631 3 c-347 1
-634 -1 -637 -5z"/>
<path d="M273 1076 c3 -7 36 -100 74 -205 l68 -192 49 3 48 3 69 194 c38 106
69 198 69 203 0 5 -21 8 -47 6 l-46 -3 -46 -138 -46 -138 -49 141 -48 140 -50
0 c-39 0 -49 -3 -45 -14z"/>
<path d="M733 1070 c-40 -24 -53 -48 -53 -99 0 -56 36 -88 135 -120 65 -21 81
-30 83 -48 2 -15 -5 -27 -23 -39 -40 -26 -95 -10 -115 34 -13 32 -16 33 -55
26 -22 -3 -42 -8 -43 -9 -2 -2 1 -19 8 -39 31 -95 157 -133 262 -80 41 21 61
59 60 111 -1 65 -34 97 -138 129 -80 24 -105 43 -81 62 37 29 105 19 114 -18
4 -16 14 -20 49 -20 38 0 44 3 44 20 0 34 -28 79 -60 95 -43 22 -147 20 -187
-5z"/>
</g>
</svg>
