<?xml version="1.0" standalone="no"?>
<!DOCTYPE svg PUBLIC "-//W3C//DTD SVG 20010904//EN"
 "http://www.w3.org/TR/2001/REC-SVG-20010904/DTD/svg10.dtd">
<svg version="1.0" xmlns="http://www.w3.org/2000/svg"
 width="128.000000pt" height="128.000000pt" viewBox="0 0 64.000000 64.000000"
 preserveAspectRatio="xMidYMid meet">
<metadata>
Created by potrace 1.16, written by Peter Selinger 2001-2019
</metadata>
<g transform="translate(0.000000,64.000000) scale(0.100000,-0.100000)"
fill="#6A7985" stroke="none">
<path d="M170 593 c0 -10 12 -53 26 -96 22 -67 29 -78 47 -75 16 2 26 21 48
84 15 46 23 87 19 94 -14 22 -38 3 -51 -40 -14 -45 -21 -43 -39 13 -8 26 -17
37 -31 37 -11 0 -19 -7 -19 -17z"/>
<path d="M357 592 c-32 -35 -19 -76 29 -92 19 -6 34 -16 34 -21 0 -13 -34 -11
-47 2 -15 15 -43 4 -43 -15 0 -20 39 -46 70 -46 42 0 72 27 68 63 -2 25 -12
37 -43 55 l-40 23 33 -6 c25 -5 33 -3 39 11 15 39 -69 60 -100 26z"/>
<path d="M85 372 c-40 -8 -56 -33 -54 -82 2 -31 -3 -55 -14 -70 -13 -18 -17
-46 -17 -107 l0 -83 105 0 105 0 0 84 c0 67 -4 88 -19 107 -13 17 -17 33 -13
61 8 63 -32 102 -93 90z m60 -177 c19 -18 25 -35 25 -70 l0 -45 -65 0 -65 0 0
45 c0 35 6 52 25 70 13 14 31 25 40 25 9 0 27 -11 40 -25z"/>
<path d="M512 372 c-33 -5 -56 -45 -50 -90 4 -28 0 -44 -13 -61 -15 -19 -19
-40 -19 -107 l0 -84 105 0 105 0 0 83 c0 61 -4 89 -17 107 -11 15 -16 39 -14
70 3 62 -32 92 -97 82z m63 -177 c19 -18 25 -35 25 -70 l0 -45 -65 0 -65 0 0
45 c0 35 6 52 25 70 13 14 31 25 40 25 9 0 27 -11 40 -25z"/>
<path d="M383 362 c-14 -9 -133 -289 -133 -313 0 -12 7 -19 19 -19 15 0 33 33
85 154 36 85 66 159 66 164 0 13 -24 22 -37 14z"/>
</g>
</svg>
