<?xml version="1.0" standalone="no"?>
<!DOCTYPE svg PUBLIC "-//W3C//DTD SVG 20010904//EN"
 "http://www.w3.org/TR/2001/REC-SVG-20010904/DTD/svg10.dtd">
<svg version="1.0" xmlns="http://www.w3.org/2000/svg"
 width="1440.000000pt" height="1080.000000pt" viewBox="0 0 1440.000000 1080.000000"
 preserveAspectRatio="xMidYMid meet">
<metadata>
Created by potrace 1.16, written by Peter Selinger 2001-2019
</metadata>
<g transform="translate(0.000000,1080.000000) scale(0.100000,-0.100000)"
fill="#000000" stroke="none">
<path d="M1170 10390 l0 -90 66 0 c57 0 65 2 62 18 -2 12 -14 18 -41 20 -29 3
-37 7 -37 23 0 15 7 19 35 19 28 0 35 4 35 20 0 16 -7 20 -35 20 -47 0 -45 18
2 22 27 2 39 8 41 21 3 15 -5 17 -62 17 l-66 0 0 -90z"/>
<path d="M1340 10390 c0 -83 1 -90 20 -90 16 0 20 7 20 35 0 44 11 44 47 -1
21 -26 35 -35 51 -32 l23 3 -25 34 c-23 31 -24 36 -11 51 21 24 19 67 -4 80
-11 5 -42 10 -70 10 l-51 0 0 -90z"/>
<path d="M1520 10390 c0 -89 0 -90 25 -90 22 0 25 4 25 35 0 44 14 44 42 0 17
-26 30 -35 51 -35 l28 0 -25 37 c-23 32 -24 38 -10 57 35 51 3 86 -79 86 l-57
0 0 -90z"/>
<path d="M1729 10451 c-20 -20 -29 -39 -29 -61 0 -45 47 -90 95 -90 51 0 85
36 85 90 0 85 -90 121 -151 61z"/>
<path d="M1910 10390 c0 -89 0 -90 25 -90 22 0 25 4 25 35 0 44 14 44 42 0 17
-26 30 -35 51 -35 l28 0 -25 37 c-23 32 -24 38 -10 57 35 51 3 86 -79 86 l-57
0 0 -90z"/>
<path d="M4717 9300 c-13 -37 -23 -50 -37 -50 -23 0 -24 8 -10 46 6 15 8 29 6
31 -3 3 -10 -13 -17 -36 -12 -40 -12 -40 -68 -44 -31 -2 491 -3 1159 -3 668 0
1086 2 928 3 -159 2 -288 5 -288 7 0 2 7 23 15 46 8 24 13 45 11 47 -2 2 -12
-18 -21 -46 l-17 -51 -99 0 c-54 0 -99 2 -99 4 0 2 7 20 15 39 8 20 15 42 14
49 0 7 -9 -11 -20 -39 l-20 -53 -99 0 -100 0 11 26 c5 15 8 29 5 31 -2 2 -8
-10 -14 -26 l-11 -31 -170 0 c-100 0 -171 4 -171 9 0 5 5 22 10 37 6 15 8 29
6 31 -3 3 -10 -13 -17 -36 l-12 -41 -289 0 c-158 0 -288 2 -288 4 0 2 7 20 15
39 8 20 15 42 14 49 0 7 -9 -11 -20 -39 l-20 -53 -155 0 c-85 0 -154 2 -154 4
0 2 7 20 16 41 8 20 14 41 12 46 -2 5 -11 -13 -21 -41z"/>
<path d="M2085 7900 c-170 -3 109 -5 620 -6 512 0 878 2 815 3 -247 6 -1141 8
-1435 3z"/>
</g>
</svg>
